#N canvas -4 -4 1920 1118 16;
#X obj -407 25 key;
#X floatatom -408 54 5 0 0 0 - - -;
#X obj -86 34 keyup;
#X floatatom -86 66 5 0 0 0 - - -;
#X obj -408 100 sel 97 115 100 119;
#X obj -407 157 s \$0-press_a_left;
#X obj -280 285 s \$0-press_w_up;
#X obj -363 204 s \$0-press_s_down;
#X obj -326 242 s \$0-press_d_right;
#X obj -86 104 sel 97 115 100 119;
#X obj -88 163 s \$0-rel_a_left;
#X obj -41 208 s \$0-rel_s_down;
#X obj -5 246 s \$0-rel_d_right;
#X obj 42 294 s \$0-rel_w_up;
#X text -192 323 camera postion;
#X obj -447 750 loadbang;
#X msg -447 779 bang;
#X floatatom -445 959 5 0 0 0 - - -;
#X floatatom -126 943 5 0 0 0 - - -;
#X obj -444 899 line;
#X floatatom -444 928 5 0 0 0 - - -;
#X msg -445 871 \$1 \, 0 1000;
#X obj -447 843 f;
#X obj -129 724 loadbang;
#X msg -127 769 bang;
#X obj -126 885 line;
#X floatatom -126 914 5 0 0 0 - - -;
#X msg -127 857 \$1 \, 0 1000;
#X obj -129 829 f;
#X floatatom 262 742 5 0 0 0 x - -;
#X floatatom 303 710 5 0 0 0 y - -;
#X floatatom 339 743 5 0 0 0 z - -;
#X floatatom 424 722 5 0 0 2 azimuth - -;
#X obj 558 733 loadbang;
#X obj 376 837 t b f;
#X obj 317 843 t b f;
#X obj 558 797 t b b;
#X obj 437 843 t b f;
#X msg 469 801 set 4;
#X msg 302 936 set view \$1 \$2 \$3 \$4 \$5 \, bang;
#X obj 318 902 pack 0 0 4 0 0;
#X floatatom 499 722 5 -89.9 89.9 2 elevate - -;
#X obj 498 845 t b f;
#X msg 428 971 set view \, adddollar 1 \, adddollar 2 \, adddollar
3 \, adddollar 4 \, adddollar 5;
#X msg 558 762 bang;
#X msg 317 1058 view 0 0 27 0 0;
#X obj 340 1135 outlet;
#X obj -251 827 bng 25 250 50 0 empty empty empty 17 7 0 10 -258113
-1 -1;
#X text -334 741 rest pos to default;
#X obj -446 987 s \$0-cam_x_pos;
#X obj -127 972 s \$0-cam_y_pos;
#X floatatom 90 943 5 0 0 0 - - -;
#X obj 61 727 loadbang;
#X msg 64 758 bang;
#X obj 90 885 line;
#X floatatom 90 914 5 0 0 0 - - -;
#X obj 87 829 f;
#X obj 87 786 r \$0-cam_z_pos;
#X obj -428 812 r \$0-cam_x_pos;
#X obj -101 797 r \$0-cam_y_pos;
#X obj 88 976 s \$0-cam_z_pos;
#X obj 262 669 r \$0-cam_x_pos;
#X obj 303 610 r \$0-cam_y_pos;
#X obj 339 639 r \$0-cam_z_pos;
#X text -376 954 camera x position;
#X obj -252 763 key;
#X obj -252 792 sel 114;
#X obj 295 214 key;
#X floatatom 295 243 5 0 0 0 - - -;
#X obj 364 129 keyname;
#X symbolatom 364 158 10 0 0 0 - - -;
#X obj 295 289 sel 52 53 54 56;
#X obj 298 345 s \$0-press_azi_left;
#X obj 342 392 s \$0-press_elv_down;
#X obj 379 430 s \$0-press_azi_right;
#X obj 425 473 s \$0-press_elv_up;
#X floatatom -144 615 5 0 0 0 - - -;
#X floatatom 528 234 5 0 0 0 - - -;
#X obj 528 280 sel 52 53 54 56;
#X obj 528 205 keyup;
#X obj 531 335 s \$0-rel_azi_left;
#X obj 575 382 s \$0-rel_elv_down;
#X obj 611 421 s \$0-rel_azi_right;
#X obj 658 464 s \$0-rel_elv_up;
#X obj -151 654 s \$0-cam_azi;
#X obj 429 552 r \$0-cam_azi;
#X obj -171 385 loadbang;
#X msg -168 416 bang;
#X obj -142 543 line;
#X floatatom -142 572 5 0 0 0 - - -;
#X obj -145 487 f;
#X obj -145 444 r \$0-cam_azi;
#X msg -143 516 \$1 \, 0 1000;
#X floatatom -358 616 5 -89.9 89.9 0 - - -;
#X text -289 611 azi angle;
#X obj -387 385 loadbang;
#X msg -384 416 bang;
#X obj -358 543 line;
#X floatatom -358 572 5 0 0 0 - - -;
#X obj -361 487 f;
#X msg -359 516 \$1 \, 0 1000;
#X obj -382 658 s \$0-cam_elv;
#X obj -360 444 r \$0-cam_elv;
#X obj 505 649 r \$0-cam_elv;
#X obj -253 871 s \$0-reset;
#X obj 123 754 r \$0-reset;
#X obj -389 780 r \$0-reset;
#X obj -328 414 r \$0-reset;
#X obj -113 415 r \$0-reset;
#X obj -36 1133;
#X obj -22 1251;
#X msg 89 857 \$1 \, 27 1000;
#X connect 0 0 1 0;
#X connect 1 0 4 0;
#X connect 2 0 3 0;
#X connect 3 0 9 0;
#X connect 4 0 5 0;
#X connect 4 1 7 0;
#X connect 4 2 8 0;
#X connect 4 3 6 0;
#X connect 9 0 10 0;
#X connect 9 1 11 0;
#X connect 9 2 12 0;
#X connect 9 3 13 0;
#X connect 15 0 16 0;
#X connect 16 0 22 0;
#X connect 17 0 49 0;
#X connect 18 0 50 0;
#X connect 19 0 20 0;
#X connect 20 0 17 0;
#X connect 21 0 19 0;
#X connect 22 0 21 0;
#X connect 23 0 24 0;
#X connect 24 0 28 0;
#X connect 25 0 26 0;
#X connect 26 0 18 0;
#X connect 27 0 25 0;
#X connect 28 0 27 0;
#X connect 29 0 40 0;
#X connect 30 0 35 0;
#X connect 31 0 34 0;
#X connect 32 0 37 0;
#X connect 33 0 44 0;
#X connect 34 0 40 0;
#X connect 34 1 40 2;
#X connect 35 0 40 0;
#X connect 35 1 40 1;
#X connect 36 0 38 0;
#X connect 36 1 43 0;
#X connect 37 0 40 0;
#X connect 37 1 40 3;
#X connect 38 0 31 0;
#X connect 39 0 45 0;
#X connect 40 0 39 0;
#X connect 41 0 42 0;
#X connect 42 0 40 0;
#X connect 42 1 40 4;
#X connect 43 0 45 0;
#X connect 44 0 36 0;
#X connect 45 0 46 0;
#X connect 47 0 24 0;
#X connect 47 0 104 0;
#X connect 51 0 60 0;
#X connect 52 0 53 0;
#X connect 53 0 56 0;
#X connect 54 0 55 0;
#X connect 55 0 51 0;
#X connect 56 0 111 0;
#X connect 57 0 56 1;
#X connect 58 0 22 1;
#X connect 59 0 28 1;
#X connect 61 0 29 0;
#X connect 62 0 30 0;
#X connect 63 0 31 0;
#X connect 65 0 66 0;
#X connect 66 0 47 0;
#X connect 67 0 68 0;
#X connect 68 0 71 0;
#X connect 69 0 70 0;
#X connect 71 0 72 0;
#X connect 71 1 73 0;
#X connect 71 2 74 0;
#X connect 71 3 75 0;
#X connect 76 0 84 0;
#X connect 77 0 78 0;
#X connect 78 0 80 0;
#X connect 78 1 81 0;
#X connect 78 2 82 0;
#X connect 78 3 83 0;
#X connect 79 0 77 0;
#X connect 85 0 32 0;
#X connect 86 0 87 0;
#X connect 87 0 90 0;
#X connect 88 0 89 0;
#X connect 89 0 76 0;
#X connect 90 0 92 0;
#X connect 91 0 90 1;
#X connect 92 0 88 0;
#X connect 93 0 101 0;
#X connect 95 0 96 0;
#X connect 96 0 99 0;
#X connect 97 0 98 0;
#X connect 98 0 93 0;
#X connect 99 0 100 0;
#X connect 100 0 97 0;
#X connect 102 0 99 1;
#X connect 103 0 41 0;
#X connect 105 0 53 0;
#X connect 106 0 16 0;
#X connect 107 0 96 0;
#X connect 108 0 87 0;
#X connect 109 0 110 0;
#X connect 111 0 54 0;
