#N canvas 1913 314 898 773 16;
#X obj 258 217 keyname;
#X symbolatom 260 257 10 0 0 0 - - - 0;
#X floatatom 336 779 5 0 0 0 - - - 0;
#X obj 329 818 s \$0-cam_azi;
#X obj 309 549 loadbang;
#X msg 312 580 bang;
#X obj 338 707 line;
#X floatatom 338 736 5 0 0 0 - - - 0;
#X obj 335 651 f;
#X obj 335 608 r \$0-cam_azi;
#X msg 337 680 \$1 \, 0 1000;
#X floatatom 153 696 5 -89.9 89.9 0 - - - 0;
#X text 222 691 azi angle;
#X obj 124 465 loadbang;
#X msg 127 496 bang;
#X obj 153 623 line;
#X floatatom 153 652 5 0 0 0 - - - 0;
#X obj 150 567 f;
#X msg 152 596 \$1 \, 0 1000;
#X obj 129 738 s \$0-cam_elv;
#X obj 151 524 r \$0-cam_elv;
#X obj 183 494 r \$0-reset;
#X obj 367 579 r \$0-reset;
#X obj -36 1133;
#X obj -22 1251;
#N canvas -39 4 1920 1109 cam_align 0;
#X obj 587 80 key;
#X floatatom 587 109 5 0 0 0 - - - 0;
#X floatatom 596 421 5 0 0 0 - - - 0;
#X obj 596 392 keyup;
#X obj 180 73 key;
#X floatatom 180 102 5 0 0 0 - - - 0;
#X floatatom 171 398 5 0 0 0 - - - 0;
#X obj 171 369 keyup;
#X obj 184 149 sel 55 57 49 51;
#X obj 171 444 sel 55 57 49 51;
#X text 84 40 diagonal keys l-up \, r-up \, l-down \, r-down;
#X obj 587 155 sel 52 54 56 50;
#X obj 597 456 sel 52 54 56 50;
#X text 581 39 left \, right \, up \, down;
#X text 39 80 key pressed;
#X text 31 379 key released;
#X obj 590 211 s \$0-press_left;
#X obj 634 258 s \$0-press_right;
#X obj 671 296 s \$0-press_up;
#X obj 717 339 s \$0-press_down;
#X msg 675 1109 view -31.5754 -0.03 33.9204;
#X floatatom 622 815 5 0 0 0 x - - 0;
#X floatatom 698 817 5 0 0 0 y - - 0;
#X floatatom 772 817 5 0 0 0 z - - 0;
#X obj 831 962 loadbang;
#X obj 758 920 t b f;
#X obj 685 917 t b f;
#X obj 676 971 pack 0 0 4;
#X msg 680 999 set view \$1 \$2 \$3 \, bang;
#X msg 753 1045 set view \, adddollar 1 \, adddollar 2 \, adddollar 3;
#X obj 693 1157 s toWin;
#X obj 709 -205 bng 24 250 50 0 empty empty empty 0 -12 0 16 #fcfcfc #000000 #000000;
#X obj 741 -280 tgl 24 0 empty empty empty 0 -12 0 16 #fcfcfc #000000 #000000 0 1;
#X obj 695 -163 f;
#X floatatom 802 -139 5 0 0 0 - - - 0;
#X obj 804 -173 line;
#X obj 695 -134 +;
#X obj 806 -240 sel 1;
#X msg 857 -174 0;
#X obj 694 -60 line;
#X obj 709 -239 metro 75;
#X obj 899 -276 tgl 24 0 empty empty empty 0 -12 0 16 #fcfcfc #000000 #000000 0 1;
#X obj 804 -109 *;
#X msg 869 -106 1;
#X msg 923 -107 -1;
#X obj 898 -141 sel 0 1;
#X obj 917 -397 r \$0-press_left;
#X obj 594 508 s \$0-rel_left;
#X obj 638 555 s \$0-rel_right;
#X obj 675 593 s \$0-rel_up;
#X obj 721 636 s \$0-rel_down;
#X obj 1090 -399 r \$0-rel_left;
#X msg 917 -368 1;
#X msg 1090 -370 0;
#X msg 569 -367 1;
#X msg 742 -369 0;
#X obj 742 -398 r \$0-rel_right;
#X obj 571 -394 r \$0-press_right;
#X obj 565 752 r \$0-cam_x_pos;
#X obj 695 -27 s \$0-cam_x_pos;
#X obj 697 785 r \$0-cam_y_pos;
#X obj 786 749 r \$0-cam_z_pos;
#X obj 659 -321 change;
#X obj 990 -311 change;
#X msg 806 -207 0 \, 1 2000;
#X obj 197 960 bng 25 250 50 0 empty empty empty 17 7 0 10 #fc0400 #000000 #000000;
#X obj 196 896 key;
#X obj 196 925 sel 114;
#X obj 195 1004 s \$0-reset;
#X obj 552 -223 r \$0-cam_x_pos;
#X obj 72 964 loadbang;
#X msg 693 -89 \$1 100;
#X obj 561 -131 r \$0-reset;
#X obj 30 -198 bng 24 250 50 0 empty empty empty 0 -12 0 16 #fcfcfc #000000 #000000;
#X obj 62 -273 tgl 24 0 empty empty empty 0 -12 0 16 #fcfcfc #000000 #000000 0 1;
#X obj 16 -156 f;
#X floatatom 123 -132 5 0 0 0 - - - 0;
#X obj 125 -166 line;
#X obj 16 -127 +;
#X obj 127 -233 sel 1;
#X msg 178 -167 0;
#X obj 15 -53 line;
#X obj 30 -232 metro 75;
#X obj 220 -269 tgl 24 0 empty empty empty 0 -12 0 16 #fcfcfc #000000 #000000 0 1;
#X obj 125 -102 *;
#X msg 190 -99 1;
#X msg 244 -100 -1;
#X obj 219 -134 sel 0 1;
#X msg 238 -361 1;
#X msg 411 -363 0;
#X msg -110 -360 1;
#X msg 63 -362 0;
#X obj -20 -314 change;
#X obj 311 -304 change;
#X msg 127 -200 0 \, 1 2000;
#X msg 14 -82 \$1 100;
#X obj 35 -6 s \$0-cam_y_pos;
#X obj -138 -217 r \$0-cam_y_pos;
#X obj -108 -387 r \$0-press_up;
#X obj 63 -391 r \$0-rel_up;
#X obj 238 -390 r \$0-press_down;
#X obj 411 -392 r \$0-rel_down;
#X obj 183 204 s \$0-press_l_up;
#X obj 227 250 s \$0-press_r_up;
#X obj 264 289 s \$0-press_l_down;
#X obj 310 332 s \$0-press_r_down;
#X obj 169 487 s \$0-rel_l_up;
#X obj 214 534 s \$0-rel_r_up;
#X obj 249 575 s \$0-rel_l_down;
#X obj 297 615 s \$0-rel_r_down;
#X obj 891 172 cos;
#X obj 984 184 tan;
#X obj 973 104 sin;
#X text 902 135 good boys;
#X msg 561 -101 0 1000;
#X obj -105 -121 r \$0-reset;
#X msg -105 -91 0 1000;
#X obj 1310 -274 tgl 24 0 empty empty empty 0 -12 0 16 #fcfcfc #000000 #000000 0 1;
#X obj 1571 -184 tgl 24 0 empty empty empty 0 -12 0 16 #fcfcfc #000000 #000000 0 1;
#X msg 1246 -358 1;
#X msg 1431 -369 0;
#X obj 1318 -310 change;
#X obj 1271 -173 bng 24 250 50 0 empty empty empty 0 -12 0 16 #fcfcfc #000000 #000000;
#X obj 1257 -131 f;
#X floatatom 1364 -107 5 0 0 0 - - - 0;
#X obj 1366 -141 line;
#X obj 1257 -102 +;
#X obj 1368 -208 sel 1;
#X msg 1419 -142 0;
#X obj 1256 -28 line;
#X obj 1271 -207 metro 75;
#X obj 1366 -77 *;
#X msg 1431 -74 1;
#X msg 1485 -75 -1;
#X obj 1460 -109 sel 0 1;
#X msg 1368 -175 0 \, 1 2000;
#X msg 1255 -57 \$1 100;
#X obj 1123 -99 r \$0-reset;
#X obj 1114 -191 r \$0-cam_z_pos;
#X msg 1123 -69 27 1000;
#X obj 1245 -396 r \$0-press_l_down;
#X obj 1431 -396 r \$0-rel_l_down;
#X msg 1602 -365 1;
#X msg 1786 -371 0;
#X obj 1674 -330 change;
#X obj 1600 -398 r \$0-press_r_up;
#X obj 1788 -398 r \$0-rel_r_up;
#X obj 1257 5 s \$0-cam_z_pos;
#X connect 0 0 1 0;
#X connect 1 0 11 0;
#X connect 2 0 12 0;
#X connect 3 0 2 0;
#X connect 4 0 5 0;
#X connect 5 0 8 0;
#X connect 6 0 9 0;
#X connect 7 0 6 0;
#X connect 8 0 102 0;
#X connect 8 1 103 0;
#X connect 8 2 104 0;
#X connect 8 3 105 0;
#X connect 9 0 106 0;
#X connect 9 1 107 0;
#X connect 9 2 108 0;
#X connect 9 3 109 0;
#X connect 11 0 16 0;
#X connect 11 1 17 0;
#X connect 11 2 18 0;
#X connect 11 3 19 0;
#X connect 12 0 47 0;
#X connect 12 1 48 0;
#X connect 12 2 49 0;
#X connect 12 3 50 0;
#X connect 20 0 30 0;
#X connect 21 0 27 0;
#X connect 22 0 26 0;
#X connect 23 0 25 0;
#X connect 24 0 29 0;
#X connect 25 0 27 0;
#X connect 25 1 27 2;
#X connect 26 0 27 0;
#X connect 26 1 27 1;
#X connect 27 0 28 0;
#X connect 28 0 20 0;
#X connect 29 0 20 0;
#X connect 31 0 33 0;
#X connect 32 0 37 0;
#X connect 32 0 40 0;
#X connect 33 0 36 0;
#X connect 34 0 42 0;
#X connect 35 0 34 0;
#X connect 36 0 71 0;
#X connect 37 0 64 0;
#X connect 37 1 38 0;
#X connect 38 0 35 0;
#X connect 39 0 59 0;
#X connect 40 0 31 0;
#X connect 41 0 45 0;
#X connect 41 0 32 0;
#X connect 42 0 36 1;
#X connect 43 0 42 1;
#X connect 44 0 42 1;
#X connect 45 0 43 0;
#X connect 45 1 44 0;
#X connect 46 0 52 0;
#X connect 51 0 53 0;
#X connect 52 0 63 0;
#X connect 53 0 63 0;
#X connect 54 0 62 0;
#X connect 55 0 62 0;
#X connect 56 0 55 0;
#X connect 57 0 54 0;
#X connect 58 0 21 0;
#X connect 60 0 22 0;
#X connect 61 0 23 0;
#X connect 62 0 32 0;
#X connect 63 0 41 0;
#X connect 64 0 35 0;
#X connect 65 0 68 0;
#X connect 66 0 67 0;
#X connect 67 0 65 0;
#X connect 69 0 33 1;
#X connect 70 0 65 0;
#X connect 71 0 39 0;
#X connect 72 0 114 0;
#X connect 73 0 75 0;
#X connect 74 0 79 0;
#X connect 74 0 82 0;
#X connect 75 0 78 0;
#X connect 76 0 84 0;
#X connect 77 0 76 0;
#X connect 78 0 95 0;
#X connect 79 0 94 0;
#X connect 79 1 80 0;
#X connect 80 0 77 0;
#X connect 81 0 96 0;
#X connect 82 0 73 0;
#X connect 83 0 87 0;
#X connect 83 0 74 0;
#X connect 84 0 78 1;
#X connect 85 0 84 1;
#X connect 86 0 84 1;
#X connect 87 0 85 0;
#X connect 87 1 86 0;
#X connect 88 0 93 0;
#X connect 89 0 93 0;
#X connect 90 0 92 0;
#X connect 91 0 92 0;
#X connect 92 0 74 0;
#X connect 93 0 83 0;
#X connect 94 0 77 0;
#X connect 95 0 81 0;
#X connect 97 0 75 1;
#X connect 98 0 90 0;
#X connect 99 0 91 0;
#X connect 100 0 88 0;
#X connect 101 0 89 0;
#X connect 114 0 39 0;
#X connect 115 0 116 0;
#X connect 116 0 81 0;
#X connect 117 0 130 0;
#X connect 117 0 127 0;
#X connect 118 0 134 0;
#X connect 118 0 117 0;
#X connect 119 0 121 0;
#X connect 120 0 121 0;
#X connect 121 0 117 0;
#X connect 122 0 123 0;
#X connect 123 0 126 0;
#X connect 124 0 131 0;
#X connect 125 0 124 0;
#X connect 126 0 136 0;
#X connect 127 0 135 0;
#X connect 127 1 128 0;
#X connect 128 0 125 0;
#X connect 129 0 147 0;
#X connect 130 0 122 0;
#X connect 131 0 126 1;
#X connect 132 0 131 1;
#X connect 133 0 131 1;
#X connect 134 0 132 0;
#X connect 134 1 133 0;
#X connect 135 0 125 0;
#X connect 136 0 129 0;
#X connect 137 0 139 0;
#X connect 138 0 123 1;
#X connect 139 0 129 0;
#X connect 140 0 119 0;
#X connect 141 0 120 0;
#X connect 142 0 144 0;
#X connect 143 0 144 0;
#X connect 144 0 118 0;
#X connect 145 0 142 0;
#X connect 146 0 143 0;
#X restore 423 243 pd cam_align;
#X text 300 512 not sure if i want these leaving for now;
#X text 425 207 track camera;
#X connect 0 0 1 0;
#X connect 2 0 3 0;
#X connect 4 0 5 0;
#X connect 5 0 8 0;
#X connect 6 0 7 0;
#X connect 7 0 2 0;
#X connect 8 0 10 0;
#X connect 9 0 8 1;
#X connect 10 0 6 0;
#X connect 11 0 19 0;
#X connect 13 0 14 0;
#X connect 14 0 17 0;
#X connect 15 0 16 0;
#X connect 16 0 11 0;
#X connect 17 0 18 0;
#X connect 18 0 15 0;
#X connect 20 0 17 1;
#X connect 21 0 14 0;
#X connect 22 0 5 0;
#X connect 23 0 24 0;
