#N canvas -4 -4 1920 1118 16;
#X obj 30 14 key;
#X floatatom 29 43 5 0 0 0 - - -;
#X obj 351 23 keyup;
#X floatatom 351 55 5 0 0 0 - - -;
#X obj 29 89 sel 97 115 100 119;
#X obj 30 146 s \$0-press_a_left;
#X obj 157 274 s \$0-press_w_up;
#X obj 74 193 s \$0-press_s_down;
#X obj 111 231 s \$0-press_d_right;
#X obj 351 93 sel 97 115 100 119;
#X obj 349 152 s \$0-rel_a_left;
#X obj 396 197 s \$0-rel_s_down;
#X obj 432 235 s \$0-rel_d_right;
#X obj 479 283 s \$0-rel_w_up;
#X obj 384 479 f;
#X text 245 312 camera postion;
#X obj 19 456 loadbang;
#X msg 19 485 bang;
#X obj 384 363 r \$0-press_a_left;
#X floatatom 282 623 5 0 0 0 - - -;
#X obj 384 450 metro 30;
#X obj 393 390 r \$0-rel_a_left;
#X msg 393 419 stop;
#X obj 195 479 f;
#X obj 195 508 + 1;
#X obj 195 450 metro 30;
#X msg 204 419 stop;
#X obj 195 359 r \$0-press_d_right;
#X obj 204 390 r \$0-rel_d_right;
#X obj 384 508 - 1;
#X obj 371 834 f;
#X floatatom 264 909 5 0 0 0 - - -;
#X obj 371 805 metro 30;
#X msg 376 774 stop;
#X obj 182 834 f;
#X obj 182 805 metro 30;
#X msg 191 774 stop;
#X obj 22 605 line;
#X floatatom 22 634 5 0 0 0 - - -;
#X msg 21 577 \$1 \, 0 1000;
#X obj 19 549 f;
#X obj 6 742 loadbang;
#X msg 8 787 bang;
#X obj 37 914 line;
#X floatatom 37 943 5 0 0 0 - - -;
#X msg 36 886 \$1 \, 0 1000;
#X obj 34 858 f;
#X floatatom 651 482 5 0 0 0 x - -;
#X floatatom 692 451 5 0 0 0 y - -;
#X floatatom 728 483 5 0 0 0 z - -;
#X floatatom 813 462 5 0 0 2 azimuth - -;
#X obj 971 542 loadbang;
#X obj 765 577 t b f;
#X obj 706 583 t b f;
#X obj 971 606 t b b;
#X obj 826 583 t b f;
#X msg 858 541 set 4;
#X msg 691 676 set view \$1 \$2 \$3 \$4 \$5 \, bang;
#X obj 707 642 pack 0 0 4 0 0;
#X floatatom 888 462 5 -89.9 89.9 2 elevate - -;
#X obj 887 585 t b f;
#X msg 817 711 set view \, adddollar 1 \, adddollar 2 \, adddollar
3 \, adddollar 4 \, adddollar 5;
#X msg 971 571 bang;
#X msg 706 798 view 0 0 27 0 0;
#X obj 666 40 gemmouse;
#X floatatom 659 113 5 0 0 0 - - -;
#X floatatom 683 151 5 0 0 0 - - -;
#X floatatom 777 197 5 0 0 0 - - -;
#X floatatom 759 129 5 0 0 0 - - -;
#X floatatom 811 169 5 0 0 0 - - -;
#X obj 729 875 outlet;
#X obj 184 718 r \$0-press_w_up;
#X obj 191 743 r \$0-rel_w_up;
#X obj 372 718 r \$0-press_s_down;
#X obj 380 745 r \$0-rel_s_down;
#X obj -120 743 bng 25 250 50 0 empty empty empty 17 7 0 10 -258113
-1 -1;
#X text -203 657 rest pos to default;
#X obj 281 651 s \$0-cam_x_pos;
#X obj 246 1002 s \$0-cam_y_pos;
#X obj -189 536 f;
#X floatatom -314 689 5 0 0 0 - - -;
#X obj -189 507 metro 30;
#X msg -180 476 stop;
#X obj -378 536 f;
#X obj -378 507 metro 30;
#X msg -369 476 stop;
#X obj -552 458 loadbang;
#X msg -549 489 bang;
#X obj -523 616 line;
#X floatatom -523 645 5 0 0 0 - - -;
#X obj -526 560 f;
#X obj -378 418 r \$0-press_w_up;
#X obj -369 445 r \$0-rel_w_up;
#X obj -189 419 r \$0-press_s_down;
#X obj -179 443 r \$0-rel_s_down;
#X obj -526 517 r \$0-cam_z_pos;
#X obj 38 518 r \$0-cam_x_pos;
#X obj 34 815 r \$0-cam_y_pos;
#X obj -316 722 s \$0-cam_z_pos;
#X obj 651 409 r \$0-cam_x_pos;
#X obj 692 350 r \$0-cam_y_pos;
#X obj 728 379 r \$0-cam_z_pos;
#X text 351 618 camera x position;
#X text 407 840 camera y position;
#X text -293 587 camera z position;
#X obj -121 679 key;
#X obj -121 708 sel 114;
#X text 667 10 cant really use this at the same time yet;
#X obj 999 175 key;
#X floatatom 999 204 5 0 0 0 - - -;
#X obj 1068 90 keyname;
#X symbolatom 1068 119 10 0 0 0 - - -;
#X obj 999 250 sel 52 53 54 56;
#X obj 1002 306 s \$0-press_azi_left;
#X obj 1046 353 s \$0-press_elv_down;
#X obj 1083 391 s \$0-press_azi_right;
#X obj 1129 434 s \$0-press_elv_up;
#X obj 1702 240 f;
#X floatatom 1597 361 5 0 0 0 - - -;
#X msg 1711 180 stop;
#X obj 1490 244 f;
#X msg 1499 184 stop;
#X text 1683 307 azi angle;
#X floatatom 1232 195 5 0 0 0 - - -;
#X obj 1232 241 sel 52 53 54 56;
#X obj 1232 166 keyup;
#X obj 1235 296 s \$0-rel_azi_left;
#X obj 1279 343 s \$0-rel_elv_down;
#X obj 1315 382 s \$0-rel_azi_right;
#X obj 1362 425 s \$0-rel_elv_up;
#X obj 1490 124 r \$0-press_azi_right;
#X obj 1499 155 r \$0-rel_azi_right;
#X obj 1702 124 r \$0-press_azi_left;
#X obj 1711 151 r \$0-rel_azi_left;
#X obj 1590 400 s \$0-cam_azi;
#X obj 818 292 r \$0-cam_azi;
#X obj 1820 196 loadbang;
#X msg 1823 227 bang;
#X obj 1849 354 line;
#X floatatom 1849 383 5 0 0 0 - - -;
#X obj 1846 298 f;
#X obj 1846 255 r \$0-cam_azi;
#X msg 1848 327 \$1 \, 0 1000;
#X obj 1694 590 f;
#X floatatom 1592 719 5 -89.9 89.9 0 - - -;
#X msg 1703 530 stop;
#X obj 1458 593 f;
#X msg 1469 531 stop;
#X text 1661 714 azi angle;
#X obj 1914 534 loadbang;
#X msg 1917 565 bang;
#X obj 1943 692 line;
#X floatatom 1943 721 5 0 0 0 - - -;
#X obj 1940 636 f;
#X msg 1942 665 \$1 \, 0 1000;
#X obj 1568 761 s \$0-cam_elv;
#X obj 1941 593 r \$0-cam_elv;
#X obj 894 389 r \$0-cam_elv;
#X obj 1460 472 r \$0-press_elv_up;
#X obj 1470 503 r \$0-rel_elv_up;
#X obj 1694 474 r \$0-press_elv_down;
#X obj 1703 501 r \$0-rel_elv_down;
#X obj -122 787 s \$0-reset;
#X obj -490 485 r \$0-reset;
#X obj 77 486 r \$0-reset;
#X obj 1973 563 r \$0-reset;
#X obj 1878 226 r \$0-reset;
#X obj 1526 658 tgl 15 0 empty empty empty 17 7 0 10 -262144 -1 -1
0 1;
#X obj 1480 679 spigot;
#X obj 1737 653 tgl 15 0 empty empty empty 17 7 0 10 -262144 -1 -1
1 1;
#X obj 1691 674 spigot;
#X obj 1460 562 metro 3;
#X obj 1695 561 metro 3;
#X obj 1458 622 + 0.1;
#X obj 1694 619 - 0.1;
#X obj 1754 618 expr $f1 >= -89.9;
#X obj 1521 623 expr $f1 <= 89.9;
#X obj 465 884 r \$0-cam_elv;
#X floatatom 471 946 5 0 0 0 - - -;
#X obj 610 1014;
#X obj 624 1132;
#X obj -380 820 r \$0-cam_elv;
#X obj -379 853 expr 1-sqrt($f1*$f1)/89.9;
#X floatatom -379 882 5 0 0 0 - - -;
#X obj 182 864 +;
#X obj 466 916 expr $f1/89.9;
#X obj 372 872 -;
#X floatatom 466 566 5 0 0 0 - - -;
#X obj -463 -39 r \$0-cam_azi;
#X floatatom -463 40 5 0 0 0 - - -;
#X obj -394 209 expr (2*((180-$f1)/180)-1)*-1;
#X floatatom -491 289 5 0 0 0 - - -;
#X obj -491 243 expr 2*((180-$f1)/180)-1;
#X obj -467 103 < 180;
#X obj -467 135 tgl 15 0 empty empty empty 17 7 0 10 -262144 -1 -1
1 1;
#X obj -546 102 spigot;
#X obj 1702 211 metro 3;
#X obj 1490 216 metro 3;
#X obj 1493 273 + 0.1;
#X obj 1703 270 - 0.1;
#X obj -463 1 mod 360;
#X obj -318 125 tgl 15 0 empty empty empty 17 7 0 10 -262144 -1 -1
0 1;
#X obj -397 92 spigot;
#X obj -318 92 >= 180;
#X obj -335 151 mod 180;
#X obj -488 332 s \$0-azi_multiplier;
#X obj 439 491 r \$0-azi_multiplier;
#X obj -532 788 r \$0-azi_multiplier;
#X floatatom -532 817 5 0 0 0 - - -;
#X floatatom -481 979 5 0 0 0 - - -;
#X obj -481 945 *;
#X obj -518 897 f;
#X obj -532 845 t b f;
#X obj -417 912 t b f;
#X obj -189 565 +;
#X obj -378 566 -;
#X msg -524 588 \$1 \, 27 1000;
#X connect 0 0 1 0;
#X connect 1 0 4 0;
#X connect 2 0 3 0;
#X connect 3 0 9 0;
#X connect 4 0 5 0;
#X connect 4 1 7 0;
#X connect 4 2 8 0;
#X connect 4 3 6 0;
#X connect 9 0 10 0;
#X connect 9 1 11 0;
#X connect 9 2 12 0;
#X connect 9 3 13 0;
#X connect 14 0 29 0;
#X connect 16 0 17 0;
#X connect 17 0 40 0;
#X connect 18 0 20 0;
#X connect 19 0 14 1;
#X connect 19 0 23 1;
#X connect 19 0 77 0;
#X connect 20 0 14 0;
#X connect 21 0 22 0;
#X connect 22 0 20 0;
#X connect 23 0 24 0;
#X connect 24 0 19 0;
#X connect 25 0 23 0;
#X connect 26 0 25 0;
#X connect 27 0 25 0;
#X connect 28 0 26 0;
#X connect 29 0 19 0;
#X connect 30 0 186 0;
#X connect 31 0 30 1;
#X connect 31 0 34 1;
#X connect 31 0 78 0;
#X connect 32 0 30 0;
#X connect 33 0 32 0;
#X connect 34 0 184 0;
#X connect 35 0 34 0;
#X connect 36 0 35 0;
#X connect 37 0 38 0;
#X connect 38 0 19 0;
#X connect 39 0 37 0;
#X connect 40 0 39 0;
#X connect 41 0 42 0;
#X connect 42 0 46 0;
#X connect 43 0 44 0;
#X connect 44 0 31 0;
#X connect 45 0 43 0;
#X connect 46 0 45 0;
#X connect 47 0 58 0;
#X connect 48 0 53 0;
#X connect 49 0 52 0;
#X connect 50 0 55 0;
#X connect 51 0 62 0;
#X connect 52 0 58 0;
#X connect 52 1 58 2;
#X connect 53 0 58 0;
#X connect 53 1 58 1;
#X connect 54 0 56 0;
#X connect 54 1 61 0;
#X connect 55 0 58 0;
#X connect 55 1 58 3;
#X connect 56 0 49 0;
#X connect 57 0 63 0;
#X connect 58 0 57 0;
#X connect 59 0 60 0;
#X connect 60 0 58 0;
#X connect 60 1 58 4;
#X connect 61 0 63 0;
#X connect 62 0 54 0;
#X connect 63 0 70 0;
#X connect 64 0 65 0;
#X connect 64 1 66 0;
#X connect 64 2 67 0;
#X connect 64 3 68 0;
#X connect 64 4 69 0;
#X connect 71 0 35 0;
#X connect 72 0 36 0;
#X connect 73 0 32 0;
#X connect 74 0 33 0;
#X connect 75 0 42 0;
#X connect 75 0 162 0;
#X connect 79 0 214 0;
#X connect 80 0 79 1;
#X connect 80 0 83 1;
#X connect 80 0 98 0;
#X connect 81 0 79 0;
#X connect 82 0 81 0;
#X connect 83 0 215 0;
#X connect 84 0 83 0;
#X connect 85 0 84 0;
#X connect 86 0 87 0;
#X connect 87 0 90 0;
#X connect 88 0 89 0;
#X connect 89 0 80 0;
#X connect 90 0 216 0;
#X connect 91 0 84 0;
#X connect 92 0 85 0;
#X connect 93 0 81 0;
#X connect 94 0 82 0;
#X connect 95 0 90 1;
#X connect 96 0 40 1;
#X connect 97 0 46 1;
#X connect 99 0 47 0;
#X connect 100 0 48 0;
#X connect 101 0 49 0;
#X connect 105 0 106 0;
#X connect 106 0 75 0;
#X connect 108 0 109 0;
#X connect 109 0 112 0;
#X connect 110 0 111 0;
#X connect 112 0 113 0;
#X connect 112 1 114 0;
#X connect 112 2 115 0;
#X connect 112 3 116 0;
#X connect 117 0 199 0;
#X connect 118 0 117 1;
#X connect 118 0 120 1;
#X connect 118 0 134 0;
#X connect 119 0 196 0;
#X connect 120 0 198 0;
#X connect 121 0 197 0;
#X connect 123 0 124 0;
#X connect 124 0 126 0;
#X connect 124 1 127 0;
#X connect 124 2 128 0;
#X connect 124 3 129 0;
#X connect 125 0 123 0;
#X connect 130 0 197 0;
#X connect 131 0 121 0;
#X connect 132 0 196 0;
#X connect 133 0 119 0;
#X connect 135 0 50 0;
#X connect 136 0 137 0;
#X connect 137 0 140 0;
#X connect 138 0 139 0;
#X connect 139 0 118 0;
#X connect 140 0 142 0;
#X connect 141 0 140 1;
#X connect 142 0 138 0;
#X connect 143 0 174 0;
#X connect 144 0 143 1;
#X connect 144 0 146 1;
#X connect 144 0 155 0;
#X connect 145 0 172 0;
#X connect 146 0 173 0;
#X connect 147 0 171 0;
#X connect 149 0 150 0;
#X connect 150 0 153 0;
#X connect 151 0 152 0;
#X connect 152 0 144 0;
#X connect 153 0 154 0;
#X connect 154 0 151 0;
#X connect 156 0 153 1;
#X connect 157 0 59 0;
#X connect 158 0 171 0;
#X connect 159 0 147 0;
#X connect 160 0 172 0;
#X connect 161 0 145 0;
#X connect 163 0 87 0;
#X connect 164 0 17 0;
#X connect 165 0 150 0;
#X connect 166 0 137 0;
#X connect 167 0 168 1;
#X connect 168 0 144 0;
#X connect 169 0 170 1;
#X connect 170 0 144 0;
#X connect 171 0 146 0;
#X connect 172 0 143 0;
#X connect 173 0 168 0;
#X connect 173 0 176 0;
#X connect 174 0 170 0;
#X connect 174 0 175 0;
#X connect 175 0 169 0;
#X connect 176 0 167 0;
#X connect 177 0 185 0;
#X connect 178 0 184 1;
#X connect 178 0 186 1;
#X connect 179 0 180 0;
#X connect 181 0 182 0;
#X connect 182 0 183 0;
#X connect 183 0 213 0;
#X connect 184 0 31 0;
#X connect 185 0 178 0;
#X connect 186 0 31 0;
#X connect 187 0 24 1;
#X connect 187 0 29 1;
#X connect 188 0 200 0;
#X connect 189 0 195 0;
#X connect 189 0 193 0;
#X connect 189 0 202 0;
#X connect 189 0 203 0;
#X connect 190 0 191 0;
#X connect 191 0 205 0;
#X connect 192 0 191 0;
#X connect 193 0 194 0;
#X connect 194 0 195 1;
#X connect 195 0 192 0;
#X connect 196 0 117 0;
#X connect 197 0 120 0;
#X connect 198 0 118 0;
#X connect 199 0 118 0;
#X connect 200 0 189 0;
#X connect 201 0 202 1;
#X connect 202 0 204 0;
#X connect 203 0 201 0;
#X connect 204 0 190 0;
#X connect 206 0 187 0;
#X connect 207 0 208 0;
#X connect 208 0 212 0;
#X connect 209 0 215 1;
#X connect 209 0 214 1;
#X connect 210 0 209 0;
#X connect 211 0 210 0;
#X connect 212 0 211 0;
#X connect 212 1 211 1;
#X connect 213 0 211 0;
#X connect 213 1 210 1;
#X connect 214 0 80 0;
#X connect 215 0 80 0;
#X connect 216 0 88 0;
