#N canvas 1 16 882 1077 16;
#X obj 1494 523 gemwin;
#X msg 99 513 0 \, destroy;
#X obj 853 473 tgl 23 0 empty empty Toggle_Fullscreen -15 -15 0 10 #00f8fc #000000 #000000 0 1;
#X obj 1063 413 tgl 23 0 empty empty Toggle_Mouse -25 -10 0 15 #0400fc #000000 #000000 0 1;
#X obj 277 326 bng 70 250 50 0 empty empty MAKE 17 7 0 25 #00fc04 #000000 #000000;
#X obj 100 434 bng 70 250 50 0 empty empty KILL 17 7 0 25 #fc0400 #000000 #000000;
#X obj 268 189 inlet;
#X obj 857 248 inlet;
#X obj 852 423 del 500;
#X obj 1063 359 inlet;
#X msg 225 417 frame 25;
#X obj 1420 666 cam_control;
#X msg 250 479 perspec -2 2 -2 2 2 100;
#X msg 1237 616 topmost \$1;
#X obj 1242 426 keyname;
#X symbolatom 1309 492 10 0 0 0 - - - 0;
#X obj 1309 523 sel Num_Lock;
#X floatatom 1308 560 5 0 0 0 - - - 0;
#X obj 1237 593 tgl 15 0 empty empty empty 17 7 0 10 #fcfcfc #000000 #000000 0 1;
#X obj 1237 559 spigot;
#X obj 354 411 tgl 15 0 empty empty empty 0 -6 0 10 #fcfcfc #000000 #000000 0 1;
#X msg 355 434 menubar \$1;
#X msg 852 505 fullscreen \$1;
#X msg 1061 448 cursor \$1;
#X msg 347 519 reset \, dimen 1920 1200 \, create \, 1;
#X obj 1494 492 r \$0-toWin;
#X obj 93 595 s \$0-toWin;
#X obj 1058 497 s \$0-toWin;
#X obj 227 590 s \$0-toWin;
#X obj 851 538 s \$0-toWin;
#X obj 1237 649 s \$0-toWin;
#X obj 268 228 tgl 24 0 empty empty empty 0 -12 0 16 #fcfcfc #000000 #000000 0 1;
#X obj 268 260 sel 0 1;
#X obj 235 519 s \$0-toWin;
#X obj 351 554 s \$0-toWin;
#X obj 471 435 s \$0-toWin;
#X obj 1403 441 r toWin;
#X connect 1 0 26 0;
#X connect 2 0 22 0;
#X connect 3 0 23 0;
#X connect 4 0 20 0;
#X connect 4 0 24 0;
#X connect 4 0 10 0;
#X connect 4 0 12 0;
#X connect 5 0 1 0;
#X connect 6 0 31 0;
#X connect 7 0 8 0;
#X connect 8 0 2 0;
#X connect 9 0 3 0;
#X connect 10 0 28 0;
#X connect 12 0 33 0;
#X connect 13 0 30 0;
#X connect 14 0 17 0;
#X connect 14 1 15 0;
#X connect 15 0 16 0;
#X connect 16 0 19 0;
#X connect 17 0 19 1;
#X connect 18 0 13 0;
#X connect 19 0 18 0;
#X connect 20 0 21 0;
#X connect 21 0 35 0;
#X connect 22 0 29 0;
#X connect 23 0 27 0;
#X connect 24 0 34 0;
#X connect 25 0 0 0;
#X connect 31 0 32 0;
#X connect 32 0 5 0;
#X connect 32 1 4 0;
#X connect 36 0 0 0;
