#N canvas 382 162 675 678 16;
#X obj 130 128 gemwin;
#X msg 200 129 0 \, destroy;
#X msg 126 99 reset \, dimen 640 480 \, create \, 1;
#X obj 361 150 tgl 23 0 empty empty Toggle_Fullscreen -15 -15 0 10
-4032 -1 -1 0 1;
#X obj 21 83 tgl 23 0 empty empty Toggle_Mouse -25 -10 0 15 -4160 -1
-1 1 1;
#X obj 530 117 bng 70 250 50 0 empty empty MAKE 17 7 0 25 -4034 -1
-1;
#X obj 546 200 bng 70 250 50 0 empty empty KILL 17 7 0 25 -258113 -1
-1;
#X obj 150 28 inlet;
#X obj 241 28 inlet;
#X obj 241 56 del 500;
#X obj 344 25 inlet;
#X msg 217 292 frame 25;
#X obj 44 348 cam_control;
#X obj 46 382 print;
#X msg 190 369 perspec -2 2 -2 2 2 100;
#X msg 194 258 topmost \$1;
#X obj 331 247 keyname;
#X symbolatom 417 249 10 0 0 0 - - -;
#X obj 417 280 sel Num_Lock;
#X floatatom 330 283 5 0 0 0 - - -;
#X obj 376 333 tgl 15 0 empty empty empty 17 7 0 10 -262144 -1 -1 1
1;
#X obj 431 332 spigot;
#X obj 195 408 tgl 15 0 empty empty empty 0 -6 0 10 -262144 -1 -1 1
1;
#X msg 184 458 menubar \$1;
#X msg 234 419 0;
#X msg 189 159 fullscreen \$1;
#X text -20 321 this is broken;
#X obj 481 405 loadbang;
#X msg -57 115 cursor \$1;
#X connect 1 0 0 0;
#X connect 2 0 0 0;
#X connect 3 0 25 0;
#X connect 4 0 28 0;
#X connect 5 0 2 0;
#X connect 5 0 22 0;
#X connect 6 0 1 0;
#X connect 7 0 5 0;
#X connect 7 0 11 0;
#X connect 7 0 14 0;
#X connect 8 0 9 0;
#X connect 9 0 3 0;
#X connect 10 0 4 0;
#X connect 11 0 0 0;
#X connect 12 0 13 0;
#X connect 12 0 0 0;
#X connect 14 0 0 0;
#X connect 15 0 0 0;
#X connect 16 0 19 0;
#X connect 16 1 17 0;
#X connect 17 0 18 0;
#X connect 18 0 21 0;
#X connect 19 0 21 1;
#X connect 20 0 15 0;
#X connect 21 0 20 0;
#X connect 22 0 23 0;
#X connect 23 0 0 0;
#X connect 24 0 23 0;
#X connect 25 0 0 0;
#X connect 27 0 20 0;
#X connect 28 0 0 0;
