#N canvas 0 0 952 1110 16;
#X obj 357 354 line;
#X obj 327 80 tgl 15 0 empty empty empty 17 7 0 10 #fcfcfc #000000 #000000 0 1;
#X obj 329 98 metro 5000;
#X obj 327 40 loadbang;
#X obj 329 136 tgl 15 0 empty empty empty 17 7 0 10 #fcfcfc #000000 #000000 0 1;
#X obj 335 160 sel 0 1;
#X floatatom 355 413 5 0 0 0 - - - 0;
#X obj 181 118 inlet;
#X obj 181 147 / 2;
#X obj 178 200 s \$0-ptime;
#X obj 424 42 r \$0-ptime;
#X obj 353 451 outlet;
#X obj 422 243 r \$0-ptime;
#X msg 370 208 1;
#X obj 351 281 pack f f;
#X msg 320 206 -1;
#X obj 259 4 inlet;
#X obj 494 121 f;
#X msg 454 209 0 \, 1;
#X text 671 116 old ptime v large?;
#X obj 467 158 !=;
#X obj 463 77 t f b;
#X msg 253 360 stop;
#X obj 312 310 tgl 15 0 empty empty empty 17 7 0 10 #fcfcfc #000000 #000000 0 1;
#X obj 267 279 != 1;
#X obj 254 330 spigot;
#X text 349 7 2nd inlet for off/on bang;
#X text 85 91 first inlet for range;
#X connect 0 0 6 0;
#X connect 1 0 2 0;
#X connect 1 0 24 0;
#X connect 2 0 4 0;
#X connect 3 0 1 0;
#X connect 4 0 5 0;
#X connect 5 0 15 0;
#X connect 5 1 13 0;
#X connect 6 0 11 0;
#X connect 7 0 8 0;
#X connect 8 0 9 0;
#X connect 10 0 2 1;
#X connect 10 0 20 1;
#X connect 10 0 21 0;
#X connect 12 0 14 1;
#X connect 13 0 14 0;
#X connect 14 0 0 0;
#X connect 15 0 14 0;
#X connect 16 0 1 0;
#X connect 17 0 20 0;
#X connect 18 0 1 0;
#X connect 20 0 18 0;
#X connect 21 0 17 1;
#X connect 21 1 17 0;
#X connect 22 0 0 0;
#X connect 23 0 25 1;
#X connect 24 0 23 0;
#X connect 24 0 25 0;
#X connect 25 0 22 0;
