#N canvas 2 2 1270 628 16;
#X obj 718 -148 gemhead;
#X obj 854 -25 part_head;
#X obj 862 210 part_source;
#X symbolatom 1073 -52 10 0 0 0 - - -;
#X obj 1073 -86 t b a;
#X msg 1073 -118 set sphere;
#X obj 863 296 part_killold;
#X floatatom 1082 365 5 0 0 0 - - -;
#X obj 774 398 part_orbitpoint;
#X floatatom 934 397 5 0 0 0 - - -;
#X msg 711 270 kill 1;
#X floatatom 388 1018 5 0 0 0 - - -;
#X obj 769 732 alpha;
#X obj 784 892 colorRGB;
#X obj 895 102 loadbang;
#X obj 862 327 loadbang;
#X obj 401 813 loadbang;
#X obj 403 841 tgl 15 0 empty empty empty 17 7 0 10 -262144 -1 -1 1
1;
#X floatatom 547 949 5 0 100000 0 - - -;
#X floatatom 1051 126 5 0 0 0 - - -;
#X floatatom 524 1087 5 0 0 0 - - -;
#X obj 1072 -152 loadbang;
#X obj 883 448 part_info;
#X obj 786 513 separator;
#X obj 840 579 translateXYZ;
#X obj 889 510 unpack f f f;
#X obj 710 236 loadbang;
#X obj 1077 1041 rotateXYZ;
#X msg 894 1134 draw fill;
#X obj 1130 998 * 360;
#X msg 932 367 0.015;
#X msg 913 1082 draw line;
#X obj 870 1001 tgl 15 0 empty empty empty 17 7 0 10 -262144 -1 -1
1 1;
#X obj 895 1044 sel 0 1;
#X floatatom 966 999 5 0 0 0 - - -;
#X obj 893 997 <= 0.7;
#N canvas 0 0 952 990 spawnpoint 0;
#X obj 425 390 snapshot~;
#X floatatom 295 473 5 0 0 0 - - -;
#X obj 588 392 snapshot~;
#X floatatom 551 478 5 0 0 0 - - -;
#X obj 249 175 tgl 15 0 empty empty empty 17 7 0 10 -262144 -1 -1 1
1;
#X obj 196 141 loadbang;
#X floatatom 255 330 5 0 0 0 - - -;
#X obj 295 530 line;
#X obj 551 536 line;
#X obj 551 507 pack f f;
#X msg 767 9 0;
#X floatatom 425 73 5 0 0 0 - - -;
#X obj 295 502 pack f f;
#X msg 447 36 0.25;
#X floatatom 755 41 5 0 0 0 - - -;
#X obj 766 -25 loadbang;
#X obj 446 4 loadbang;
#X obj 194 330 inlet;
#X obj 386 160 inlet;
#X obj 425 -27 inlet;
#X obj 268 195 metro 1;
#X obj 272 225 metro 1;
#X obj 423 356 osc~ 0.8;
#X obj 589 355 osc~ 0.8;
#X text 101 299 snapshot speed;
#X text 332 129 x osc speed;
#X obj 579 149 inlet;
#X text 536 123 y osc speed;
#X text 409 -52 x osc phase;
#X obj 755 -58 inlet;
#X text 739 -83 y osc phase;
#X obj 295 564 outlet;
#X obj 551 571 outlet;
#X obj 515 89 f;
#X floatatom 712 123 5 0 0 0 - - -;
#X floatatom 481 149 5 0 0 0 - - -;
#X obj 512 36 t b f;
#X obj 674 86 f;
#X obj 673 43 t b f;
#X connect 0 0 1 0;
#X connect 1 0 12 0;
#X connect 2 0 3 0;
#X connect 3 0 9 0;
#X connect 4 0 20 0;
#X connect 4 0 21 0;
#X connect 5 0 4 0;
#X connect 6 0 9 1;
#X connect 6 0 12 1;
#X connect 6 0 20 1;
#X connect 6 0 21 1;
#X connect 7 0 31 0;
#X connect 8 0 32 0;
#X connect 9 0 8 0;
#X connect 10 0 14 0;
#X connect 11 0 36 0;
#X connect 12 0 7 0;
#X connect 13 0 11 0;
#X connect 14 0 38 0;
#X connect 15 0 10 0;
#X connect 16 0 13 0;
#X connect 17 0 6 0;
#X connect 18 0 22 0;
#X connect 19 0 11 0;
#X connect 20 0 2 0;
#X connect 21 0 0 0;
#X connect 22 0 0 0;
#X connect 23 0 2 0;
#X connect 26 0 23 0;
#X connect 29 0 14 0;
#X connect 33 0 22 1;
#X connect 33 0 35 0;
#X connect 36 0 33 1;
#X connect 36 0 37 0;
#X connect 36 1 33 0;
#X connect 37 0 34 0;
#X connect 37 0 23 1;
#X connect 38 0 37 1;
#X connect 38 0 33 0;
#X connect 38 1 37 0;
#X restore 90 1002 pd spawnpoint;
#X obj 90 1041 s \$0-x;
#X obj 217 1041 s \$0-y;
#X obj 1543 1093;
#X floatatom 854 -85 5 0 0 0 - - -;
#X msg 854 -57 speed \$1;
#N canvas 797 283 450 287 pack_pos 0;
#X obj 136 70 r \$0-x;
#X obj 243 65 r \$0-y;
#X floatatom 81 70 5 0 0 0 - - -;
#X obj 115 119 *;
#X obj 163 119 *;
#X obj 23 34 inlet;
#X obj 119 204 outlet;
#X obj 120 159 pack f f 0 0.1 0.05;
#X connect 0 0 3 0;
#X connect 1 0 4 0;
#X connect 2 0 3 1;
#X connect 2 0 4 1;
#X connect 3 0 7 0;
#X connect 4 0 7 1;
#X connect 5 0 2 0;
#X connect 7 0 6 0;
#X restore 1051 161 pd pack_pos;
#X text 1077 11 outer size of portal;
#X obj 1066 481 s age;
#X obj 1128 964 r age;
#X obj 894 963 r age;
#X obj 1680 1225;
#X text 389 774 size pulse;
#X text 862 -176 speed of parts;
#X obj 787 -230 r part_speed;
#X text 891 936 fill thresh;
#X obj 962 967 r fill_thres;
#X obj 1043 398 /;
#X obj 1144 326 r max_age;
#X obj 1115 125 r outer_r;
#X obj 1153 1075 r age;
#X obj 428 1092 s s_ps;
#X obj 1248 1105 r s_ps;
#X floatatom 899 167 5 0 0 0 - - -;
#N canvas 683 0 675 678 color_control 0;
#X obj 34 16 inlet;
#X obj 156 30 inlet;
#X obj 249 38 inlet;
#X obj 24 627 outlet;
#X obj 138 625 outlet;
#X obj 240 623 outlet;
#X obj 63 54 r age;
#X obj 539 54 inlet;
#X text 514 25 color age;
#X obj 33 162 +;
#X obj 343 105 expr 1-$f1;
#X obj 452 134 tgl 15 0 empty empty empty 17 7 0 10 -262144 -1 -1 1
1;
#X obj 381 133 spigot;
#X obj 386 206 s \$0-redf;
#X obj 90 88 r \$0-redf;
#X obj 66 122 *;
#X obj 411 464 s \$0-greenf;
#X text 42 -1 red;
#X text 150 3 green;
#X text 257 12 bluuu;
#X obj 176 126 r age;
#X obj 144 229 +;
#X obj 179 194 *;
#X obj 186 159 r \$0-greenf;
#X obj 452 104 <= 1;
#X obj 701 401 tgl 15 0 empty empty empty 17 7 0 10 -262144 -1 -1 0
1;
#X obj 625 400 spigot;
#X obj 697 371 >= 1;
#X obj 638 479 s \$0-bluef;
#X obj 588 373 expr $f1-1;
#X obj 638 444 f;
#X obj 387 168 f;
#X obj 472 310 tgl 15 0 empty empty empty 17 7 0 10 -262144 -1 -1 1
1;
#X obj 473 277 <= 1;
#X obj 395 279 spigot;
#X obj 406 319 f;
#X obj 259 232 r age;
#X obj 227 335 +;
#X obj 262 300 *;
#X obj 270 265 r \$0-bluef;
#X floatatom 253 381 5 0 0 0 - - -;
#X floatatom 161 278 5 0 0 0 - - -;
#X floatatom 45 206 5 0 0 0 - - -;
#X obj 495 305 == 0;
#X obj 558 395 tgl 15 0 empty empty empty 17 7 0 10 -262144 -1 -1 0
1;
#X obj 483 395 spigot;
#X obj 494 435 f;
#X obj 435 364 expr 1-($f1-1);
#X connect 0 0 9 1;
#X connect 1 0 21 1;
#X connect 2 0 37 1;
#X connect 6 0 15 0;
#X connect 7 0 10 0;
#X connect 7 0 24 0;
#X connect 7 0 27 0;
#X connect 7 0 29 0;
#X connect 7 0 33 0;
#X connect 7 0 34 0;
#X connect 7 0 47 0;
#X connect 9 0 3 0;
#X connect 10 0 12 0;
#X connect 11 0 12 1;
#X connect 11 0 31 1;
#X connect 12 0 31 0;
#X connect 14 0 15 1;
#X connect 14 0 42 0;
#X connect 15 0 9 0;
#X connect 20 0 22 0;
#X connect 21 0 4 0;
#X connect 22 0 21 0;
#X connect 23 0 22 1;
#X connect 23 0 41 0;
#X connect 24 0 11 0;
#X connect 25 0 26 1;
#X connect 25 0 30 1;
#X connect 26 0 30 0;
#X connect 27 0 25 0;
#X connect 29 0 26 0;
#X connect 30 0 28 0;
#X connect 31 0 13 0;
#X connect 32 0 34 1;
#X connect 32 0 35 1;
#X connect 32 0 43 0;
#X connect 33 0 32 0;
#X connect 34 0 35 0;
#X connect 35 0 16 0;
#X connect 36 0 38 0;
#X connect 37 0 5 0;
#X connect 38 0 37 0;
#X connect 39 0 38 1;
#X connect 39 0 40 0;
#X connect 43 0 44 0;
#X connect 44 0 45 1;
#X connect 45 0 46 0;
#X connect 46 0 16 0;
#X connect 47 0 45 0;
#X restore 743 828 pd color_control;
#X text 1398 461 fade in/out;
#X floatatom 1470 598 5 0 0 0 - - -;
#X floatatom 1202 706 5 0 0 0 - - -;
#X obj 1049 1116 cube;
#X floatatom 1370 712 5 0 0 0 - - -;
#X obj 1213 792 f;
#X floatatom 1201 868 5 0 0 0 - - -;
#X obj 1201 738 t b f;
#X obj 1373 743 t b f;
#X obj 1377 779 f;
#X obj 1212 826 expr min($f1 \, $f2);
#X obj 1124 598 r age, f 7;
#X obj 1506 498 r fadepoint;
#X obj 1120 638 expr 1-((max($f1 \, $f2)-$f2)/(1-$f2)) \; min($f1 \,
$f2)/$f2;
#X obj 1472 548 expr max($f1 \, .01);
#X obj 442 954 lineosc;
#X obj 455 1013 *;
#X obj 1329 1094 r particle_size;
#X obj 1173 1154 expr $f1+$f2+$f3;
#X msg 835 366 0 0 0;
#X obj 863 246 part_sink sphere 0 0 0 0.5 0;
#X obj -7 941 r snapshot;
#X obj 181 941 r y_freq;
#X obj 97 941 r x_freq;
#X obj 139 909 r x_phase;
#X obj 205 972 r y_phase;
#X msg 896 132 4;
#N canvas -904 -4 900 1402 state_machine 0;
#X obj 45 450 inlet;
#X obj 45 483 list trim;
#X floatatom 163 620 5 0 0 0 - - -;
#X floatatom 284 622 5 0 0 0 - - -;
#X floatatom 421 621 5 0 0 0 - - -;
#X floatatom 560 622 5 0 0 0 - - -;
#X floatatom 678 621 5 0 0 0 - - -;
#X floatatom 797 622 5 0 0 0 - - -;
#X floatatom 902 622 5 0 0 0 - - -;
#X floatatom 1214 612 5 0 0 0 - - -;
#X floatatom 1295 614 5 0 0 0 - - -;
#X floatatom 1377 613 5 0 0 0 - - -;
#X floatatom 1549 617 5 0 0 0 - - -;
#X floatatom 1006 535 5 0 0 0 - - -;
#X floatatom 1007 565 5 0 0 0 - - -;
#X floatatom 1008 593 5 0 0 0 - - -;
#X obj 49 779 t b f;
#X obj 48 816 s \$0-banger;
#X obj 226 844 t b f;
#X obj 225 881 s \$0-banger;
#X obj 298 802 t b f;
#X obj 297 839 s \$0-banger;
#X obj 423 808 t b f;
#X obj 424 846 s \$0-banger;
#X obj 524 775 t b f;
#X obj 523 812 s \$0-banger;
#X obj 645 817 t b f;
#X obj 644 854 s \$0-banger;
#X obj 719 779 t b f;
#X obj 718 816 s \$0-banger;
#X obj 968 759 t b f;
#X obj 965 794 s \$0-banger;
#X obj 1094 777 t b f;
#X obj 1093 814 s \$0-banger;
#X obj 1211 769 t b f;
#X obj 1211 802 s \$0-banger;
#X obj 1335 772 t b f;
#X obj 1332 808 s \$0-banger;
#X obj 1461 752 t b f;
#X obj 1460 789 s \$0-banger;
#X obj 1542 872 t b f;
#X obj 1541 909 s \$0-banger;
#X obj 532 932 r \$0-banger;
#X floatatom 1470 617 5 0 0 0 - - -;
#X obj 907 847 unpack f f f f;
#X floatatom 1008 621 5 0 0 0 - - -;
#X obj 913 972 pack f f f f f f f f f f f f f f f f f f;
#X obj 2278 1078;
#X obj 3247 1105;
#X obj 1628 724 t b f;
#X obj 1627 761 s \$0-banger;
#X obj 73 650 route /age_depth /particle_size /pulse_size /pulse_depth
/part_speed /fill_thres /max_age /color_RGBX /snapshot /x_freq /y_freq
/x_phase /y_phase /outer_r /fadepoint, f 167;
#X floatatom 1640 620 5 0 0 0 - - -;
#X text 1069 535 r;
#X text 1070 565 g;
#X text 1071 595 b;
#X text 1072 622 X;
#X floatatom 1123 613 5 0 0 0 - - -;
#X obj 1119 1142 unpack f f f f f f f f f f f f f f f f f f, f 116
;
#X obj -493 1150 line;
#X obj 333 1552;
#X obj 226 1073 array define state_replay;
#X obj 874 1052 r \$0-savebanger;
#X obj 875 1142 array get state_replay;
#X obj 297 1151 vsl 50 128 10 10000 0 0 empty empty Transition_speed
0 -9 0 10 -203904 -1 -1 12200 1;
#X obj 265 1306 s \$0-trans_speed;
#X obj 104 1131 bng 68 250 50 0 empty empty SAVE 17 7 0 45 -45076 -1
-262130;
#X obj 74 1284 s \$0-savebanger;
#X msg 220 963 resize 18;
#X obj 234 917 loadbang;
#X msg -41 1466 list /age_depth \$1;
#X msg 376 1468 list /pulse_size \$1;
#X obj 247 1029 array define state_current;
#X obj 897 1009 array set state_current;
#X obj 874 1080 array get state_current;
#X obj 874 1110 array set state_replay;
#X obj 619 1144 array get state_current;
#X obj 962 1256 unpack f f f f f f f f f f f f f f f f f f, f 98;
#X obj -41 1495 s from_state;
#X floatatom 320 1337 5 0 0 0 - - -;
#N canvas -904 -4 900 1402 trans 0;
#X obj 141 146 r \$0-trans_speed;
#X obj 63 208 line;
#X obj 63 177 pack f f;
#X obj 63 145 inlet;
#X obj 63 238 outlet;
#X obj 141 112 inlet;
#X connect 0 0 2 1;
#X connect 1 0 4 0;
#X connect 2 0 1 0;
#X connect 3 0 2 0;
#X connect 5 0 1 0;
#X restore -40 1428 pd trans;
#X obj 155 1495 s from_state;
#N canvas -904 -4 900 1402 trans 0;
#X obj 141 146 r \$0-trans_speed;
#X obj 63 208 line;
#X obj 63 177 pack f f;
#X obj 63 145 inlet;
#X obj 63 238 outlet;
#X obj 141 112 inlet;
#X connect 0 0 2 1;
#X connect 1 0 4 0;
#X connect 2 0 1 0;
#X connect 3 0 2 0;
#X connect 5 0 1 0;
#X restore 154 1429 pd trans;
#X msg 154 1466 list /particle_size \$1;
#X obj 376 1498 s from_state;
#N canvas -904 -4 900 1402 trans 0;
#X obj 141 146 r \$0-trans_speed;
#X obj 63 208 line;
#X obj 63 177 pack f f;
#X obj 63 145 inlet;
#X obj 63 238 outlet;
#X obj 141 112 inlet;
#X connect 0 0 2 1;
#X connect 1 0 4 0;
#X connect 2 0 1 0;
#X connect 3 0 2 0;
#X connect 5 0 1 0;
#X restore 386 1429 pd trans;
#N canvas -904 0 900 1402 trans 0;
#X obj 141 146 r \$0-trans_speed;
#X obj 63 208 line;
#X obj 63 177 pack f f;
#X obj 63 145 inlet;
#X obj 63 238 outlet;
#X obj 141 112 inlet;
#X connect 0 0 2 1;
#X connect 1 0 4 0;
#X connect 2 0 1 0;
#X connect 3 0 2 0;
#X connect 5 0 1 0;
#X restore 592 1424 pd trans;
#N canvas -904 -4 900 1402 trans 0;
#X obj 141 146 r \$0-trans_speed;
#X obj 63 208 line;
#X obj 63 177 pack f f;
#X obj 63 145 inlet;
#X obj 63 238 outlet;
#X obj 141 112 inlet;
#X connect 0 0 2 1;
#X connect 1 0 4 0;
#X connect 2 0 1 0;
#X connect 3 0 2 0;
#X connect 5 0 1 0;
#X restore 803 1420 pd trans;
#X obj 597 1492 s from_state;
#X msg 597 1462 list /pulse_depth \$1;
#X obj 807 1491 s from_state;
#X msg 807 1461 list /part_speed \$1;
#N canvas -904 -4 900 1402 trans 0;
#X obj 141 146 r \$0-trans_speed;
#X obj 63 208 line;
#X obj 63 177 pack f f;
#X obj 63 145 inlet;
#X obj 63 238 outlet;
#X obj 141 112 inlet;
#X connect 0 0 2 1;
#X connect 1 0 4 0;
#X connect 2 0 1 0;
#X connect 3 0 2 0;
#X connect 5 0 1 0;
#X restore 1009 1419 pd trans;
#X obj 1014 1494 s from_state;
#X msg 1015 1464 list /fill_thres \$1;
#N canvas -904 -4 900 1402 trans 0;
#X obj 141 146 r \$0-trans_speed;
#X obj 63 208 line;
#X obj 63 177 pack f f;
#X obj 63 145 inlet;
#X obj 63 238 outlet;
#X obj 141 112 inlet;
#X connect 0 0 2 1;
#X connect 1 0 4 0;
#X connect 2 0 1 0;
#X connect 3 0 2 0;
#X connect 5 0 1 0;
#X restore 1214 1418 pd trans;
#X obj 1216 1494 s from_state;
#X msg 1217 1464 list /max_age \$1;
#N canvas -904 -4 900 1402 trans 0;
#X obj 141 146 r \$0-trans_speed;
#X obj 63 208 line;
#X obj 63 177 pack f f;
#X obj 63 145 inlet;
#X obj 63 238 outlet;
#X obj 141 112 inlet;
#X connect 0 0 2 1;
#X connect 1 0 4 0;
#X connect 2 0 1 0;
#X connect 3 0 2 0;
#X connect 5 0 1 0;
#X restore 1334 1404 pd trans;
#X obj 1392 1520 s from_state;
#N canvas -904 -4 900 1402 trans 0;
#X obj 141 146 r \$0-trans_speed;
#X obj 63 208 line;
#X obj 63 177 pack f f;
#X obj 63 145 inlet;
#X obj 63 238 outlet;
#X obj 141 112 inlet;
#X connect 0 0 2 1;
#X connect 1 0 4 0;
#X connect 2 0 1 0;
#X connect 3 0 2 0;
#X connect 5 0 1 0;
#X restore 1421 1399 pd trans;
#N canvas -904 -4 900 1402 trans 0;
#X obj 141 146 r \$0-trans_speed;
#X obj 63 208 line;
#X obj 63 177 pack f f;
#X obj 63 145 inlet;
#X obj 63 238 outlet;
#X obj 141 112 inlet;
#X connect 0 0 2 1;
#X connect 1 0 4 0;
#X connect 2 0 1 0;
#X connect 3 0 2 0;
#X connect 5 0 1 0;
#X restore 1504 1399 pd trans;
#N canvas -904 -4 900 1402 trans 0;
#X obj 141 146 r \$0-trans_speed;
#X obj 63 208 line;
#X obj 63 177 pack f f;
#X obj 63 145 inlet;
#X obj 63 238 outlet;
#X obj 141 112 inlet;
#X connect 0 0 2 1;
#X connect 1 0 4 0;
#X connect 2 0 1 0;
#X connect 3 0 2 0;
#X connect 5 0 1 0;
#X restore 1585 1400 pd trans;
#N canvas -904 -4 900 1402 trans 0;
#X obj 141 146 r \$0-trans_speed;
#X obj 63 208 line;
#X obj 63 177 pack f f;
#X obj 63 145 inlet;
#X obj 63 238 outlet;
#X obj 141 112 inlet;
#X connect 0 0 2 1;
#X connect 1 0 4 0;
#X connect 2 0 1 0;
#X connect 3 0 2 0;
#X connect 5 0 1 0;
#X restore 1735 1418 pd trans;
#X obj 1722 1499 s from_state;
#X msg 1723 1469 list /snapshot \$1;
#N canvas -904 -4 900 1402 trans 0;
#X obj 141 146 r \$0-trans_speed;
#X obj 63 208 line;
#X obj 63 177 pack f f;
#X obj 63 145 inlet;
#X obj 63 238 outlet;
#X obj 141 112 inlet;
#X connect 0 0 2 1;
#X connect 1 0 4 0;
#X connect 2 0 1 0;
#X connect 3 0 2 0;
#X connect 5 0 1 0;
#X restore 1921 1408 pd trans;
#X obj 1916 1475 s from_state;
#N canvas -904 -4 900 1402 trans 0;
#X obj 141 146 r \$0-trans_speed;
#X obj 63 208 line;
#X obj 63 177 pack f f;
#X obj 63 145 inlet;
#X obj 63 238 outlet;
#X obj 141 112 inlet;
#X connect 0 0 2 1;
#X connect 1 0 4 0;
#X connect 2 0 1 0;
#X connect 3 0 2 0;
#X connect 5 0 1 0;
#X restore 2107 1410 pd trans;
#X obj 2104 1478 s from_state;
#X msg 2105 1448 list /y_freq \$1;
#X msg 1917 1445 list /x_freq \$1;
#N canvas -904 -4 900 1402 trans 0;
#X obj 141 146 r \$0-trans_speed;
#X obj 63 208 line;
#X obj 63 177 pack f f;
#X obj 63 145 inlet;
#X obj 63 238 outlet;
#X obj 141 112 inlet;
#X connect 0 0 2 1;
#X connect 1 0 4 0;
#X connect 2 0 1 0;
#X connect 3 0 2 0;
#X connect 5 0 1 0;
#X restore 2282 1419 pd trans;
#X obj 2278 1502 s from_state;
#N canvas -904 -4 900 1402 trans 0;
#X obj 141 146 r \$0-trans_speed;
#X obj 63 208 line;
#X obj 63 177 pack f f;
#X obj 63 145 inlet;
#X obj 63 238 outlet;
#X obj 141 112 inlet;
#X connect 0 0 2 1;
#X connect 1 0 4 0;
#X connect 2 0 1 0;
#X connect 3 0 2 0;
#X connect 5 0 1 0;
#X restore 2454 1418 pd trans;
#X obj 2453 1503 s from_state;
#X msg 2279 1472 list /x_phase \$1;
#X msg 2454 1473 list /y_phase \$1;
#N canvas -904 -4 900 1402 trans 0;
#X obj 141 146 r \$0-trans_speed;
#X obj 63 208 line;
#X obj 63 177 pack f f;
#X obj 63 145 inlet;
#X obj 63 238 outlet;
#X obj 141 112 inlet;
#X connect 0 0 2 1;
#X connect 1 0 4 0;
#X connect 2 0 1 0;
#X connect 3 0 2 0;
#X connect 5 0 1 0;
#X restore 2630 1420 pd trans;
#X obj 2630 1501 s from_state;
#X msg 2631 1471 list /outer_r \$1;
#N canvas -904 -4 900 1402 trans 0;
#X obj 141 146 r \$0-trans_speed;
#X obj 63 208 line;
#X obj 63 177 pack f f;
#X obj 63 145 inlet;
#X obj 63 238 outlet;
#X obj 141 112 inlet;
#X connect 0 0 2 1;
#X connect 1 0 4 0;
#X connect 2 0 1 0;
#X connect 3 0 2 0;
#X connect 5 0 1 0;
#X restore 2811 1420 pd trans;
#X obj 2811 1497 s from_state;
#X msg 2812 1467 list /fadepoint \$1;
#X obj 1390 1449 pack f f f f;
#X obj 909 1255 t b;
#X msg 1392 1481 list /color_RGBX \$1 \$2 \$3 \$4;
#X obj 793 745 t b l;
#X obj 781 780 s \$0-banger;
#X obj 61 1066 r save_state;
#X obj 267 1108 r trans_speed;
#X obj 1164 1008 r \$0-savebanger;
#X obj 1164 1036 array get state_current;
#X obj 1723 1107 text define all_save_states;
#X obj 1723 1035 loadbang;
#X msg 1723 1071 read uzi_saves/all_save_states.txt;
#X obj 1423 1041 text set all_save_states;
#X msg 1496 1014 99999;
#X obj 1495 983 loadbang;
#X msg 1397 928 bang;
#X obj 1397 957;
#X obj 1202 1065 del 20;
#X obj 1164 1065 t b;
#X msg 1219 1102 write uzi_saves/all_save_states.txt;
#X obj 1331 1070 text size all_save_states;
#X obj 1266 1068 del 20;
#X obj 1580 1073 s \$0-num_saves;
#X floatatom 1832 743 5 2000 1e+006 0 - - -;
#X obj 1725 865 tgl 15 0 empty empty empty 17 7 0 10 -262144 -1 -1
0 1;
#X obj 1732 886 metro 10000;
#X obj 1736 923 random;
#X obj 1864 916 text size all_save_states;
#X obj 1868 810 loadbang;
#X msg 1868 855 bang;
#X floatatom 1884 950 5 0 0 0 - - -;
#X obj 1734 976 text get all_save_states;
#X obj 1808 1043 s \$0-load_random;
#X obj 589 982 r \$0-load_random;
#X obj 628 1015 t b l;
#X obj 1666 1011 print;
#X floatatom 1675 947 5 0 0 0 - - -;
#X floatatom 1957 1013 5 0 0 0 - - -;
#X obj 1703 804 r randomload;
#X obj 1848 777 r linger_time;
#X obj 1646 834 r skip_next;
#X msg 1832 703 10000;
#X obj 1828 659 loadbang;
#X connect 0 0 1 0;
#X connect 1 0 51 0;
#X connect 16 0 17 0;
#X connect 16 1 46 0;
#X connect 18 0 19 0;
#X connect 18 1 46 1;
#X connect 20 0 21 0;
#X connect 20 1 46 2;
#X connect 22 0 23 0;
#X connect 22 1 46 3;
#X connect 24 0 25 0;
#X connect 24 1 46 4;
#X connect 26 0 27 0;
#X connect 26 1 46 5;
#X connect 28 0 29 0;
#X connect 28 1 46 6;
#X connect 30 0 31 0;
#X connect 30 1 46 11;
#X connect 32 0 33 0;
#X connect 32 1 46 12;
#X connect 34 0 35 0;
#X connect 34 1 46 13;
#X connect 36 0 37 0;
#X connect 36 1 46 14;
#X connect 38 0 39 0;
#X connect 38 1 46 15;
#X connect 40 0 41 0;
#X connect 40 1 46 16;
#X connect 42 0 46 0;
#X connect 44 0 13 0;
#X connect 44 0 46 7;
#X connect 44 1 14 0;
#X connect 44 1 46 8;
#X connect 44 2 15 0;
#X connect 44 2 46 9;
#X connect 44 3 45 0;
#X connect 44 3 46 10;
#X connect 46 0 73 0;
#X connect 47 0 48 0;
#X connect 49 0 50 0;
#X connect 49 1 46 17;
#X connect 51 0 2 0;
#X connect 51 0 16 0;
#X connect 51 1 3 0;
#X connect 51 1 18 0;
#X connect 51 2 4 0;
#X connect 51 2 20 0;
#X connect 51 3 5 0;
#X connect 51 3 22 0;
#X connect 51 4 6 0;
#X connect 51 4 24 0;
#X connect 51 5 7 0;
#X connect 51 5 26 0;
#X connect 51 6 8 0;
#X connect 51 6 28 0;
#X connect 51 7 127 0;
#X connect 51 8 30 0;
#X connect 51 8 57 0;
#X connect 51 9 9 0;
#X connect 51 9 32 0;
#X connect 51 10 10 0;
#X connect 51 10 34 0;
#X connect 51 11 11 0;
#X connect 51 11 36 0;
#X connect 51 12 38 0;
#X connect 51 12 43 0;
#X connect 51 13 12 0;
#X connect 51 13 40 0;
#X connect 51 14 49 0;
#X connect 51 14 52 0;
#X connect 58 0 80 0;
#X connect 58 1 82 0;
#X connect 58 2 85 0;
#X connect 58 3 86 0;
#X connect 58 4 87 0;
#X connect 58 5 92 0;
#X connect 58 6 95 0;
#X connect 58 7 98 0;
#X connect 58 8 100 0;
#X connect 58 9 101 0;
#X connect 58 10 102 0;
#X connect 58 11 103 0;
#X connect 58 12 106 0;
#X connect 58 13 108 0;
#X connect 58 14 112 0;
#X connect 58 15 114 0;
#X connect 58 16 118 0;
#X connect 58 17 121 0;
#X connect 62 0 74 0;
#X connect 63 0 58 0;
#X connect 64 0 65 0;
#X connect 64 0 79 0;
#X connect 66 0 67 0;
#X connect 68 0 61 0;
#X connect 68 0 72 0;
#X connect 69 0 68 0;
#X connect 70 0 78 0;
#X connect 71 0 84 0;
#X connect 74 0 75 0;
#X connect 76 0 77 0;
#X connect 77 0 80 1;
#X connect 77 0 125 0;
#X connect 77 1 82 1;
#X connect 77 2 85 1;
#X connect 77 3 86 1;
#X connect 77 4 87 1;
#X connect 77 5 92 1;
#X connect 77 6 95 1;
#X connect 77 7 98 1;
#X connect 77 8 100 1;
#X connect 77 9 101 1;
#X connect 77 10 102 1;
#X connect 77 11 103 1;
#X connect 77 12 106 1;
#X connect 77 13 108 1;
#X connect 77 14 112 1;
#X connect 77 15 114 1;
#X connect 77 16 118 1;
#X connect 77 17 121 1;
#X connect 80 0 70 0;
#X connect 82 0 83 0;
#X connect 83 0 81 0;
#X connect 85 0 71 0;
#X connect 86 0 89 0;
#X connect 87 0 91 0;
#X connect 89 0 88 0;
#X connect 91 0 90 0;
#X connect 92 0 94 0;
#X connect 94 0 93 0;
#X connect 95 0 97 0;
#X connect 97 0 96 0;
#X connect 98 0 124 0;
#X connect 100 0 124 1;
#X connect 101 0 124 2;
#X connect 102 0 124 3;
#X connect 103 0 105 0;
#X connect 105 0 104 0;
#X connect 106 0 111 0;
#X connect 108 0 110 0;
#X connect 110 0 109 0;
#X connect 111 0 107 0;
#X connect 112 0 116 0;
#X connect 114 0 117 0;
#X connect 116 0 113 0;
#X connect 117 0 115 0;
#X connect 118 0 120 0;
#X connect 120 0 119 0;
#X connect 121 0 123 0;
#X connect 123 0 122 0;
#X connect 124 0 126 0;
#X connect 125 0 63 0;
#X connect 126 0 99 0;
#X connect 127 0 128 0;
#X connect 127 1 44 0;
#X connect 129 0 66 0;
#X connect 130 0 64 0;
#X connect 131 0 132 0;
#X connect 132 0 136 0;
#X connect 132 0 142 0;
#X connect 134 0 135 0;
#X connect 135 0 133 0;
#X connect 137 0 136 1;
#X connect 138 0 137 0;
#X connect 139 0 140 0;
#X connect 141 0 143 0;
#X connect 141 0 145 0;
#X connect 142 0 141 0;
#X connect 143 0 133 0;
#X connect 144 0 146 0;
#X connect 145 0 144 0;
#X connect 147 0 149 1;
#X connect 148 0 149 0;
#X connect 149 0 150 0;
#X connect 149 0 151 0;
#X connect 150 0 160 0;
#X connect 151 0 150 1;
#X connect 151 0 154 0;
#X connect 152 0 153 0;
#X connect 153 0 151 0;
#X connect 155 0 156 0;
#X connect 155 0 159 0;
#X connect 155 1 161 0;
#X connect 157 0 158 0;
#X connect 158 0 76 0;
#X connect 158 1 75 0;
#X connect 160 0 155 0;
#X connect 162 0 148 0;
#X connect 163 0 149 1;
#X connect 164 0 150 0;
#X connect 165 0 147 0;
#X connect 166 0 165 0;
#X coords 0 1402 1 1401 85 60 0;
#X restore 195 580 pd state_machine;
#X obj 1177 1118 *;
#X obj 1222 1063 r age_depth;
#X obj 194 538 r to_state;
#X text 212 499 state of synth;
#X obj 595 916 r pulse_depth;
#X obj 585 1084 r pulse_size;
#N canvas -4 -4 1920 1118 throw_state 0;
#X obj 44 68 r age_depth;
#X obj 758 340 r outer_r;
#X obj 252 68 r particle_size;
#X obj 42 352 r snapshot;
#X obj 244 349 r x_freq;
#X obj 339 348 r y_freq;
#X obj 459 350 r x_phase;
#X obj 565 350 r y_phase;
#X text 339 315 draw controls;
#X text 343 27 partice size control;
#X obj 37 226 r part_speed;
#X obj 272 225 r fill_thres;
#X obj 518 218 r max_age;
#X text 346 171 main particle controls;
#X msg 43 97 list /age_depth \$1;
#X obj 44 127 s to_state;
#X obj 254 128 s to_state;
#X msg 254 98 list /particle_size \$1;
#X obj 500 131 s to_state;
#X msg 499 100 list /pulse_size \$1;
#X obj 716 134 s to_state;
#X msg 715 101 list /pulse_depth \$1;
#X obj 499 70 r pulse_size;
#X obj 715 69 r pulse_depth;
#X obj 38 287 s to_state;
#X obj 272 287 s to_state;
#X obj 519 287 s to_state;
#X obj 717 268 s to_state;
#X msg 37 257 list /part_speed \$1;
#X msg 272 256 list /fill_thres \$1;
#X msg 518 255 list /max_age \$1;
#X obj 717 202 r color_RGBX;
#X msg 716 234 list /color_RGBX \$1 \$2 \$3 \$4;
#X obj 42 414 s to_state;
#X obj 244 417 s to_state;
#X obj 292 479 s to_state;
#X obj 759 406 s to_state;
#X msg 42 384 list /snapshot \$1;
#X msg 244 386 list /x_freq \$1;
#X msg 291 447 list /y_freq \$1;
#X obj 457 446 s to_state;
#X obj 569 476 s to_state;
#X msg 460 413 list /x_phase \$1;
#X msg 568 444 list /y_phase \$1;
#X msg 758 375 list /outer_r \$1;
#X obj 70 465 r fadepoint;
#X obj 70 531 s to_state;
#X msg 69 501 list /fadepoint \$1;
#X connect 0 0 14 0;
#X connect 1 0 44 0;
#X connect 2 0 17 0;
#X connect 3 0 37 0;
#X connect 4 0 38 0;
#X connect 5 0 39 0;
#X connect 6 0 42 0;
#X connect 7 0 43 0;
#X connect 10 0 28 0;
#X connect 11 0 29 0;
#X connect 12 0 30 0;
#X connect 14 0 15 0;
#X connect 17 0 16 0;
#X connect 19 0 18 0;
#X connect 21 0 20 0;
#X connect 22 0 19 0;
#X connect 23 0 21 0;
#X connect 28 0 24 0;
#X connect 29 0 25 0;
#X connect 30 0 26 0;
#X connect 31 0 32 0;
#X connect 32 0 27 0;
#X connect 37 0 33 0;
#X connect 38 0 34 0;
#X connect 39 0 35 0;
#X connect 42 0 40 0;
#X connect 43 0 41 0;
#X connect 44 0 36 0;
#X connect 45 0 47 0;
#X connect 47 0 46 0;
#X restore 207 454 pd throw_state;
#X obj 743 761 r color_RGBX;
#X obj 743 790 unpack f f f f;
#X text 908 -302 gemchain;
#N canvas 960 0 952 1110 CONTROLS 0;
#X obj -533 995 cwin, f 10;
#X obj -426 863 bng 45 250 50 0 empty empty KILL/CREATE_WINDOW 17 7
0 10 -257985 -1 -1;
#X obj -425 915 bng 45 250 50 0 empty empty TOGGLE_FULLSCREEN 17 7
0 10 -4032 -1 -1;
#X obj -565 912 loadbang;
#X obj -521 476 loadbang;
#X msg -406 523 1;
#X msg -520 521 0;
#X obj -286 238 vsl 50 150 1 1000 0 0 empty empty Snapshot_delay 0
-9 0 10 -258113 -1 -1 0 1;
#X obj -558 -204 vsl 50 150 0 1000 0 0 empty empty X_freq 0 -9 0 10
-1 -262144 -262144 7600 1;
#X obj -453 -205 vsl 50 150 0 1000 0 0 empty empty Y_Freq -20 0 0 10
-1 -262144 -262144 7600 1;
#X obj -365 -218 vradio 18 1 0 9 empty empty x_phase 0 -8 0 10 -4032
-1 -1 2;
#X floatatom -354 -12 5 0 0 0 - - -;
#X obj -227 -212 vradio 18 1 0 9 empty empty y_phase 0 -8 0 10 -4032
-1 -1 1;
#X floatatom -227 -15 5 0 0 0 - - -;
#X floatatom -558 -43 5 0 0 0 - - -;
#X floatatom -286 395 5 0 0 0 - - -;
#X floatatom -453 -41 5 0 0 0 - - -;
#X obj -106 -203 vsl 50 150 0.1 10 0 0 empty empty Particle_speed -20
0 0 10 -159808 -1 -1 2400 1;
#X floatatom -104 -38 5 0 0 0 - - -;
#X obj -105 -12 s part_speed;
#X obj 110 424 s fill_thres;
#X obj 104 230 vsl 50 150 0 1.01 0 0 empty empty Fill_thresh -20 0
0 10 -260097 -1 -1 4500 1;
#X floatatom 111 396 5 0 0 0 - - -;
#X obj -167 420 s max_age;
#X obj -167 235 vsl 50 150 1 700 0 0 empty empty MAX_age -20 0 0 10
-4034 -1 -1 9900 1;
#X floatatom -167 392 5 0 0 0 - - -;
#X floatatom -518 396 5 0 0 0 - - -;
#X obj -519 424 s outer_r;
#X obj 89 728 vsl 50 150 -2 2 0 0 empty empty Pulse_Size -20 0 0 10
-4160 -261234 -261234 7450 1;
#X floatatom 78 892 5 0 0 0 - - -;
#X obj -517 239 vsl 50 150 0.1 55 0 0 empty empty outer_Radius -20
0 0 10 -257985 -1 -1 6800 1;
#X msg -560 -247 40.2;
#X obj -560 -278 loadbang;
#X msg -507 -247 0.8;
#X obj -52 639 tgl 90 0 empty empty g_bomb 17 7 0 20 -13381 -1 -1 0
1;
#X obj 169 732 vsl 50 150 0 100000 0 0 empty empty pulse_depth -20
0 0 10 -203904 -1 -1 800 1;
#X floatatom 171 891 9 0 0 0 - - -;
#X obj -107 -265 loadbang;
#X msg -106 -235 0.631;
#X floatatom -288 1198 11 0 0 0 - - -;
#X obj -170 578 vsl 100 150 150 500000 0 0 empty empty bomb_osc_speed_corse
0 -9 0 10 -86277 -1 -1 0 1;
#N canvas -904 -4 900 1402 gravitytbomb 0;
#X obj 114 124 part_orbitpoint;
#X floatatom 325 110 5 0 0 0 - - -;
#X obj 321 205 lineosc;
#X obj 117 40 gemhead;
#X msg 308 137 100000;
#X msg 324 80 0.11;
#X obj 280 41 loadbang;
#X obj 260 204 * 10;
#X msg 187 90 0 0 \$1;
#X obj 203 -118 inlet;
#X obj 230 -75 inlet;
#X floatatom 346 173 10 0 0 0 - - -;
#X obj 296 -38 inlet;
#X text 197 -164 inputs;
#X text 26 -121 turn on off bang;
#X text 86 -74 osc distance;
#X text 178 -40 osc period;
#X msg 387 47 -0.015;
#X msg 331 354 bang;
#X floatatom 199 238 5 0 0 0 - - -;
#X obj 580 262;
#X obj 543 298;
#X connect 1 0 0 2;
#X connect 2 0 7 0;
#X connect 3 0 0 0;
#X connect 4 0 11 0;
#X connect 5 0 1 0;
#X connect 6 0 5 0;
#X connect 6 0 4 0;
#X connect 7 0 8 0;
#X connect 7 0 19 0;
#X connect 8 0 0 1;
#X connect 9 0 3 0;
#X connect 10 0 7 1;
#X connect 11 0 2 0;
#X connect 12 0 11 0;
#X connect 17 0 1 0;
#X connect 18 0 2 1;
#X connect 20 0 21 0;
#X restore -146 1022 pd gravitytbomb;
#X floatatom -70 980 5 0 0 0 - - -;
#X obj -174 749 vsl 100 150 0 2500 0 0 empty empty bomb_osc_speed_fine
0 -9 0 10 -102401 -1 -1 0 1;
#X obj -286 1160 +;
#X obj -175 1056 t b f;
#X msg -517 206 18;
#X obj -519 178 loadbang;
#X obj -514 571 vsl 40 150 0 1 0 0 empty empty RED -20 0 0 10 -258113
-1 -1 2300 1;
#X obj -459 566 vsl 40 150 0 1 0 0 empty empty GREEN -20 0 0 10 -4034
-1 -1 2100 1;
#X obj -407 571 vsl 40 150 0 1 0 0 empty empty BLUE -20 0 0 10 -4160
-1 -1 1100 1;
#X msg -465 523 -1;
#X obj -31 238 vsl 50 150 0 1 0 0 empty empty Fade_Point 0 -9 0 10
-204786 -1 -1 2700 1;
#X floatatom -32 395 5 0 0 0 - - -;
#X obj -33 421 s fadepoint;
#X floatatom 39 -39 5 0 0 0 - - -;
#X obj 39 -199 vsl 50 150 -10 15 0 0 empty empty cube_size -20 0 0
10 -66577 -262144 -262144 5000 0;
#X obj 38 -259 loadbang;
#X obj 39 -10 s particle_size;
#X floatatom -405 395 5 0 0 0 - - -;
#X obj -404 238 vsl 50 150 -1 6 0 0 empty empty age_depth -20 0 0 10
-128992 -261234 -261234 10700 1;
#X obj -401 178 loadbang;
#X msg -401 206 1;
#X obj -406 423 s age_depth;
#X msg 76 695 0;
#X obj 77 665 loadbang;
#X obj -286 423 s snapshot;
#X obj -453 -9 s y_freq;
#X obj -558 -10 s x_freq;
#X msg 38 -230 -0.23;
#X obj -355 47 s x_phase;
#X obj -231 48 s y_phase;
#X obj -326 -205 vsl 50 150 0 1 0 0 empty empty X_Phase 0 -9 0 10 -228856
-1 -1 12000 1;
#X obj -205 -203 vsl 50 150 0 1 0 0 empty empty Y_Phase 0 -9 0 10 -228856
-1 -1 8300 1;
#X obj -353 -45 / 8;
#X obj -227 -45 / 8;
#X floatatom -450 749 5 0 0 0 - - -;
#X floatatom -510 750 5 0 0 0 - - -;
#X floatatom -388 749 5 0 0 0 - - -;
#X obj 35 923 s pulse_size;
#X obj 165 925 s pulse_depth;
#X obj -30 169 loadbang;
#X msg -30 198 0.2;
#X obj 572 -319;
#X obj 561 1027;
#X obj -535 1027;
#N canvas -4 -4 1920 1118 colorstuff 0;
#X obj 465 54 line;
#X msg 391 54 \$1 100;
#X obj 252 292 pack f f f f;
#X obj 254 327 s color_RGBX;
#X obj 247 52 t b f;
#X obj 313 53 t b f;
#X obj 387 88 t b f;
#X obj 171 18 inlet;
#X obj 247 14 inlet;
#X obj 314 12 inlet;
#X obj 387 11 inlet;
#X connect 0 0 6 0;
#X connect 1 0 0 0;
#X connect 2 0 3 0;
#X connect 4 0 2 0;
#X connect 4 1 2 1;
#X connect 5 0 2 0;
#X connect 5 1 2 2;
#X connect 6 0 2 0;
#X connect 6 1 2 3;
#X connect 7 0 2 0;
#X connect 8 0 4 0;
#X connect 9 0 5 0;
#X connect 10 0 1 0;
#X restore -491 808 pd colorstuff;
#X obj -319 686 hsl 120 45 0 2 0 0 empty empty AGE_BLEND -2 -8 0 10
-232576 -1 -1 3700 1;
#X msg -361 632 0.041;
#X obj -367 590 loadbang;
#X floatatom -324 752 5 0 0 0 - - -;
#X obj -54 749 vsl 100 150 0.2 12 0 0 empty empty bomb_osc_Distance
0 -9 0 10 -86853 -1 -1 0 1;
#X obj -286 172 loadbang;
#X msg -286 201 1;
#X obj -168 172 loadbang;
#X msg -167 202 188;
#X obj 172 664 loadbang;
#X msg 172 694 10;
#X obj 108 167 loadbang;
#X msg 108 196 0.7;
#X obj -460 28 tgl 35 0 empty empty (LOCK) 17 7 0 10 -261234 -1 -1
0 1;
#X obj -536 36 spigot;
#X obj -53 581 loadbang;
#X msg -53 610 0;
#X obj -371 -288 loadbang;
#X msg -371 -258 0.25;
#X msg -199 -251 0;
#X obj 204 343 s alpha_val;
#X floatatom 204 314 5 0 19 0 - - -;
#X obj 201 252 loadbang;
#X msg 204 281 5;
#N canvas -4 -4 1920 1118 catch_state 0;
#X obj 491 194 r from_state;
#X obj 491 223 list trim;
#X obj 491 252 s \$0-from_state;
#X connect 0 0 1 0;
#X connect 1 0 2 0;
#X restore -335 461 pd catch_state;
#X obj -562 119 r \$0-from_state;
#X obj -449 121 r \$0-from_state;
#X obj -448 148 route /age_depth;
#X obj -562 148 route /outer_r;
#X obj -321 120 r \$0-from_state;
#X obj -320 147 route /snapshot;
#X obj -193 119 r \$0-from_state;
#X obj -192 146 route /max_age;
#X obj -46 116 r \$0-from_state;
#X obj -45 143 route /fadepoint;
#X obj 81 114 r \$0-from_state;
#X obj 81 144 route /fill_thres;
#X obj -635 -332 r \$0-from_state;
#X obj -535 -333 r \$0-from_state;
#X obj -634 -305 route /x_freq;
#X obj -534 -306 route /y_freq;
#X obj -268 -324 r \$0-from_state;
#X obj -395 -337 r \$0-from_state;
#X obj -267 -297 route /y_phase;
#X obj -128 -321 r \$0-from_state;
#X obj -129 -294 route /part_speed;
#X obj -9 -322 r \$0-from_state;
#X obj -10 -295 route /particle_size;
#X obj 77 545 r \$0-from_state;
#X obj 76 572 route /pulse_size;
#X obj 140 607 r \$0-from_state;
#X obj 137 634 route /pulse_depth;
#X obj -348 492 r \$0-from_state;
#X obj -348 521 route /color_RGBX;
#X obj -393 -310 route /x_phase;
#X obj -341 552 unpack f f f f;
#X obj -354 17 change;
#X obj -229 16 change;
#X obj -60 1068 print;
#X obj -241 1085 f;
#X obj 198 -317 bng 68 250 50 0 empty empty SAVE 17 7 0 45 -45076 -1
-262130;
#X obj 465 -115 bng 68 250 50 0 empty empty LOAD_SAVE 17 7 0 10 -159808
-1 -1;
#X obj 166 -179 vsl 50 128 10 10000 0 0 empty empty Transition_speed
0 -9 0 10 -203904 -1 -1 6100 1;
#X obj 193 -224 s save_state;
#X obj 200 -37 s trans_speed;
#X msg -121 1130 10;
#X msg -119 1163 100000, f 16;
#X obj -69 1132 loadbang;
#X obj 326 -81 s randomload;
#X obj 324 -158 tgl 68 0 empty empty RANDOMLOAD 17 7 0 37 -262130 -1
-1 0 1;
#X obj 270 -180 vsl 50 128 1000 100000 0 0 empty empty Transition_speed
0 -9 0 10 -204800 -1 -1 100 1;
#X obj 270 28 s linger_time;
#X floatatom 288 -3 15 0 0 0 - - -;
#X floatatom 202 -4 8 0 0 0 - - -;
#X obj 469 -14 s skip_next;
#X connect 1 0 0 0;
#X connect 2 0 0 1;
#X connect 3 0 1 0;
#X connect 3 0 0 2;
#X connect 4 0 51 0;
#X connect 4 0 6 0;
#X connect 4 0 5 0;
#X connect 5 0 50 0;
#X connect 6 0 48 0;
#X connect 7 0 15 0;
#X connect 8 0 14 0;
#X connect 9 0 16 0;
#X connect 10 0 74 0;
#X connect 11 0 143 0;
#X connect 12 0 75 0;
#X connect 13 0 144 0;
#X connect 14 0 68 0;
#X connect 14 0 101 0;
#X connect 15 0 66 0;
#X connect 16 0 67 0;
#X connect 17 0 18 0;
#X connect 18 0 19 0;
#X connect 21 0 22 0;
#X connect 22 0 20 0;
#X connect 24 0 25 0;
#X connect 25 0 23 0;
#X connect 26 0 27 0;
#X connect 28 0 29 0;
#X connect 29 0 79 0;
#X connect 30 0 26 0;
#X connect 31 0 8 0;
#X connect 31 0 9 0;
#X connect 32 0 31 0;
#X connect 33 0 8 0;
#X connect 33 0 9 0;
#X connect 34 0 41 0;
#X connect 35 0 36 0;
#X connect 36 0 80 0;
#X connect 37 0 38 0;
#X connect 38 0 17 0;
#X connect 39 0 41 2;
#X connect 40 0 146 1;
#X connect 42 0 41 1;
#X connect 43 0 45 0;
#X connect 44 0 39 0;
#X connect 45 0 146 0;
#X connect 45 1 44 1;
#X connect 46 0 30 0;
#X connect 47 0 46 0;
#X connect 48 0 77 0;
#X connect 49 0 76 0;
#X connect 50 0 78 0;
#X connect 51 0 49 0;
#X connect 52 0 53 0;
#X connect 53 0 54 0;
#X connect 55 0 58 0;
#X connect 56 0 55 0;
#X connect 57 0 69 0;
#X connect 59 0 63 0;
#X connect 60 0 59 0;
#X connect 61 0 62 0;
#X connect 62 0 60 0;
#X connect 64 0 28 0;
#X connect 65 0 64 0;
#X connect 69 0 56 0;
#X connect 72 0 11 0;
#X connect 73 0 13 0;
#X connect 74 0 11 0;
#X connect 74 0 72 0;
#X connect 75 0 13 0;
#X connect 75 0 73 0;
#X connect 76 0 86 1;
#X connect 77 0 86 0;
#X connect 78 0 86 2;
#X connect 81 0 82 0;
#X connect 82 0 52 0;
#X connect 87 0 90 0;
#X connect 88 0 87 0;
#X connect 89 0 88 0;
#X connect 90 0 86 3;
#X connect 91 0 42 0;
#X connect 92 0 93 0;
#X connect 93 0 7 0;
#X connect 94 0 95 0;
#X connect 95 0 24 0;
#X connect 96 0 97 0;
#X connect 97 0 35 0;
#X connect 98 0 99 0;
#X connect 99 0 21 0;
#X connect 100 0 101 1;
#X connect 101 0 9 0;
#X connect 102 0 103 0;
#X connect 103 0 34 0;
#X connect 104 0 105 0;
#X connect 104 0 106 0;
#X connect 105 0 72 0;
#X connect 106 0 73 0;
#X connect 108 0 107 0;
#X connect 109 0 110 0;
#X connect 110 0 108 0;
#X connect 112 0 115 0;
#X connect 113 0 114 0;
#X connect 114 0 60 0;
#X connect 115 0 30 0;
#X connect 116 0 117 0;
#X connect 117 0 7 0;
#X connect 118 0 119 0;
#X connect 119 0 24 0;
#X connect 120 0 121 0;
#X connect 121 0 52 0;
#X connect 122 0 123 0;
#X connect 123 0 21 0;
#X connect 124 0 126 0;
#X connect 125 0 127 0;
#X connect 126 0 8 0;
#X connect 127 0 9 0;
#X connect 128 0 130 0;
#X connect 129 0 141 0;
#X connect 130 0 73 0;
#X connect 131 0 132 0;
#X connect 132 0 17 0;
#X connect 133 0 134 0;
#X connect 134 0 56 0;
#X connect 135 0 136 0;
#X connect 136 0 28 0;
#X connect 137 0 138 0;
#X connect 138 0 35 0;
#X connect 139 0 140 0;
#X connect 140 0 142 0;
#X connect 141 0 72 0;
#X connect 142 0 48 0;
#X connect 142 1 49 0;
#X connect 142 2 50 0;
#X connect 142 3 87 0;
#X connect 143 0 70 0;
#X connect 144 0 71 0;
#X connect 146 0 44 0;
#X connect 147 0 150 0;
#X connect 148 0 161 0;
#X connect 149 0 151 0;
#X connect 149 0 160 0;
#X connect 152 0 42 0;
#X connect 153 0 39 0;
#X connect 154 0 152 0;
#X connect 156 0 155 0;
#X connect 157 0 158 0;
#X connect 157 0 159 0;
#X coords 0 1110 1 1109 377 248 0;
#X restore 220 391 pd CONTROLS;
#X obj 810 697 r alpha_val;
#X obj 718 -46 realtime;
#X obj 718 -75 t b b;
#X floatatom 718 -17 5 0 0 0 - - -;
#X obj 717 46 f;
#X obj 718 12 t b f;
#X obj 717 79 >;
#X floatatom 716 121 5 0 0 0 - - -;
#X obj 767 78 spigot;
#X msg 796 147 0;
#X text 415 -16 use this to measure system load;
#X connect 0 0 1 0;
#X connect 0 0 102 0;
#X connect 1 0 2 0;
#X connect 2 0 81 0;
#X connect 3 0 2 2;
#X connect 4 0 3 0;
#X connect 4 1 3 0;
#X connect 5 0 4 0;
#X connect 6 0 8 0;
#X connect 7 0 6 1;
#X connect 7 0 53 1;
#X connect 8 0 22 0;
#X connect 9 0 8 2;
#X connect 10 0 81 0;
#X connect 11 0 57 0;
#X connect 12 0 13 0;
#X connect 13 0 27 0;
#X connect 14 0 87 0;
#X connect 15 0 30 0;
#X connect 15 0 80 0;
#X connect 16 0 17 0;
#X connect 17 0 76 0;
#X connect 18 0 76 0;
#X connect 19 0 42 0;
#X connect 20 0 77 1;
#X connect 21 0 5 0;
#X connect 22 0 23 0;
#X connect 22 2 25 0;
#X connect 22 6 53 0;
#X connect 23 0 24 0;
#X connect 24 0 12 0;
#X connect 25 0 24 1;
#X connect 25 1 24 2;
#X connect 25 2 24 3;
#X connect 26 0 10 0;
#X connect 27 0 64 0;
#X connect 28 0 64 0;
#X connect 29 0 27 2;
#X connect 29 0 27 3;
#X connect 29 0 27 1;
#X connect 30 0 9 0;
#X connect 31 0 64 0;
#X connect 32 0 33 0;
#X connect 33 0 28 0;
#X connect 33 1 31 0;
#X connect 34 0 35 1;
#X connect 35 0 32 0;
#X connect 36 0 37 0;
#X connect 36 1 38 0;
#X connect 39 0 47 0;
#X connect 40 0 41 0;
#X connect 41 0 1 0;
#X connect 42 0 2 3;
#X connect 45 0 29 0;
#X connect 46 0 35 0;
#X connect 50 0 40 0;
#X connect 52 0 34 0;
#X connect 53 0 44 0;
#X connect 54 0 7 0;
#X connect 55 0 19 0;
#X connect 56 0 89 0;
#X connect 58 0 79 1;
#X connect 59 0 2 1;
#X connect 60 0 13 1;
#X connect 60 1 13 2;
#X connect 60 2 13 3;
#X connect 62 0 74 1;
#X connect 63 0 68 0;
#X connect 65 0 69 0;
#X connect 66 0 71 0;
#X connect 67 0 13 4;
#X connect 68 0 66 0;
#X connect 68 1 66 1;
#X connect 69 0 70 0;
#X connect 69 1 70 1;
#X connect 70 0 71 1;
#X connect 71 0 67 0;
#X connect 72 0 74 0;
#X connect 73 0 75 0;
#X connect 74 0 63 0;
#X connect 74 1 65 0;
#X connect 75 0 62 0;
#X connect 76 0 77 0;
#X connect 77 0 11 0;
#X connect 78 0 79 2;
#X connect 79 0 64 1;
#X connect 80 0 8 1;
#X connect 81 0 6 0;
#X connect 82 0 36 0;
#X connect 83 0 36 3;
#X connect 84 0 36 1;
#X connect 85 0 36 2;
#X connect 86 0 36 4;
#X connect 87 0 59 0;
#X connect 89 0 79 0;
#X connect 90 0 89 1;
#X connect 91 0 88 0;
#X connect 93 0 18 0;
#X connect 94 0 20 0;
#X connect 96 0 97 0;
#X connect 97 0 60 0;
#X connect 97 1 60 1;
#X connect 97 2 60 2;
#X connect 97 3 60 3;
#X connect 100 0 12 1;
#X connect 101 0 103 0;
#X connect 102 0 101 0;
#X connect 102 1 101 1;
#X connect 103 0 105 0;
#X connect 104 0 106 0;
#X connect 104 0 108 0;
#X connect 105 0 104 0;
#X connect 105 1 104 1;
#X connect 106 0 108 1;
#X connect 107 0 106 1;
#X connect 108 0 107 0;
#X connect 109 0 107 0;
