#N canvas -450 -133 442 1394 16;
#X obj 877 -273 gemhead;
#X obj 812 53 part_head;
#X obj 862 210 part_source;
#X symbolatom 1073 -52 10 0 0 0 - - -;
#X obj 1073 -86 t b a;
#X msg 1073 -118 set sphere;
#X obj 863 296 part_killold;
#X floatatom 1044 366 5 0 0 0 - - -;
#X obj 774 398 part_orbitpoint;
#X floatatom 934 397 5 0 0 0 - - -;
#X floatatom 198 1149 5 0 0 0 - - -;
#X obj 913 621 alpha;
#X obj 926 801 colorRGB;
#X obj 895 102 loadbang;
#X obj 862 327 loadbang;
#X obj 334 1034 loadbang;
#X obj 336 1062 tgl 15 0 empty empty empty 17 7 0 10 -262144 -1 -1
1 1;
#X floatatom 195 1047 5 0 100000 0 - - -;
#X floatatom 1051 126 5 0 0 0 - - -;
#X floatatom 247 1118 5 0 0 0 - - -;
#X obj 1072 -152 loadbang;
#X obj 943 447 part_info;
#X obj 836 526 separator;
#X obj 895 557 translateXYZ;
#X obj 936 527 unpack f f f;
#X obj 710 236 loadbang;
#X obj 1157 967 rotateXYZ;
#X msg 821 1336 draw fill;
#X obj 1210 924 * 360;
#X msg 932 367 0.015;
#X msg 840 1284 draw line;
#X obj 780 1175 tgl 15 0 empty empty empty 17 7 0 10 -262144 -1 -1
1 1;
#X obj 816 1208 sel 0 1;
#X floatatom 887 1165 5 0 0 0 - - -;
#X obj 814 1161 <= 0.7;
#N canvas -904 -137 900 1402 spawnpoint 0;
#X obj 425 390 snapshot~;
#X floatatom 295 473 5 0 0 0 - - -;
#X obj 588 392 snapshot~;
#X floatatom 551 478 5 0 0 0 - - -;
#X obj 249 175 tgl 15 0 empty empty empty 17 7 0 10 -262144 -1 -1 1
1;
#X obj 196 141 loadbang;
#X floatatom 255 330 5 0 0 0 - - -;
#X obj 295 530 line;
#X obj 551 536 line;
#X obj 551 507 pack f f;
#X msg 654 -31 0;
#X floatatom 448 35 5 0 0 0 - - -;
#X obj 295 502 pack f f;
#X msg 470 -2 0.25;
#X floatatom 642 1 5 0 0 0 - - -;
#X obj 653 -65 loadbang;
#X obj 469 -34 loadbang;
#X obj 194 330 inlet;
#X obj 386 160 inlet;
#X obj 448 -65 inlet;
#X obj 268 195 metro 1;
#X obj 179 204 metro 1;
#X obj 423 356 osc~ 0.8;
#X obj 589 355 osc~ 0.8;
#X text 101 299 snapshot speed;
#X text 332 129 x osc speed;
#X obj 579 149 inlet;
#X text 536 123 y osc speed;
#X text 432 -90 x osc phase;
#X obj 642 -98 inlet;
#X text 626 -123 y osc phase;
#X obj 295 564 outlet;
#X obj 551 571 outlet;
#X obj 515 89 f;
#X floatatom 712 123 5 0 0 0 - - -;
#X obj 512 36 t b f;
#X obj 674 86 f;
#X obj 673 43 t b f;
#N canvas -4 -4 1920 1118 some_weird_stuff 0;
#X obj 428 1180 dac~;
#X obj 371 991 osc~;
#X obj 501 973 osc~;
#X obj 377 1114 *~;
#X obj 469 1116 *~;
#X msg 579 1105 0;
#X msg 578 1136 1;
#X obj 582 1066 loadbang;
#X text 365 1058 wierd shit;
#X text 621 1101 off;
#X text 626 1138 on;
#X obj 507 929 +~;
#X obj 373 950 +~;
#X floatatom 407 906 5 0 0 0 - - -;
#X floatatom 537 891 5 0 0 0 - - -;
#X obj 670 928 snapshot~;
#X obj 672 888 metro 30;
#X obj 698 847 bng 15 250 50 0 empty empty empty 17 7 0 10 -262144
-1 -1;
#X obj 657 971 expr (($f1+1)/2)*50;
#X floatatom 750 835 5 0 0 0 - - -;
#X obj 141 951 snapshot~;
#X obj 143 911 metro 30;
#X obj 169 870 bng 15 250 50 0 empty empty empty 17 7 0 10 -262144
-1 -1;
#X obj 128 994 expr (($f1+1)/2)*50;
#X floatatom 221 858 5 0 0 0 - - -;
#X obj 364 857 inlet;
#X obj 495 854 inlet;
#X connect 1 0 3 0;
#X connect 1 0 20 0;
#X connect 2 0 4 0;
#X connect 2 0 15 0;
#X connect 3 0 0 0;
#X connect 4 0 0 1;
#X connect 5 0 4 1;
#X connect 5 0 3 1;
#X connect 6 0 3 1;
#X connect 6 0 4 1;
#X connect 6 0 17 0;
#X connect 6 0 22 0;
#X connect 7 0 5 0;
#X connect 11 0 2 0;
#X connect 12 0 1 0;
#X connect 13 0 12 1;
#X connect 14 0 11 1;
#X connect 15 0 18 0;
#X connect 16 0 15 0;
#X connect 17 0 16 0;
#X connect 18 0 14 0;
#X connect 19 0 16 1;
#X connect 20 0 23 0;
#X connect 21 0 20 0;
#X connect 22 0 21 0;
#X connect 23 0 13 0;
#X connect 24 0 21 1;
#X connect 25 0 12 0;
#X connect 26 0 11 0;
#X restore 628 266 pd some_weird_stuff;
#X connect 0 0 1 0;
#X connect 1 0 12 0;
#X connect 2 0 3 0;
#X connect 3 0 9 0;
#X connect 4 0 20 0;
#X connect 4 0 21 0;
#X connect 5 0 4 0;
#X connect 6 0 9 1;
#X connect 6 0 12 1;
#X connect 6 0 20 1;
#X connect 6 0 21 1;
#X connect 7 0 31 0;
#X connect 8 0 32 0;
#X connect 9 0 8 0;
#X connect 10 0 14 0;
#X connect 11 0 35 0;
#X connect 12 0 7 0;
#X connect 13 0 11 0;
#X connect 14 0 37 0;
#X connect 15 0 10 0;
#X connect 16 0 13 0;
#X connect 17 0 6 0;
#X connect 18 0 22 0;
#X connect 18 0 38 0;
#X connect 19 0 11 0;
#X connect 20 0 2 0;
#X connect 21 0 0 0;
#X connect 22 0 0 0;
#X connect 23 0 2 0;
#X connect 26 0 23 0;
#X connect 26 0 38 1;
#X connect 29 0 14 0;
#X connect 33 0 22 1;
#X connect 35 0 33 1;
#X connect 35 0 36 0;
#X connect 35 1 33 0;
#X connect 36 0 34 0;
#X connect 36 0 23 1;
#X connect 37 0 36 1;
#X connect 37 0 33 0;
#X connect 37 1 36 0;
#X restore 233 825 pd spawnpoint;
#X obj 233 864 s \$0-x;
#X obj 360 864 s \$0-y;
#X obj 1543 1093;
#X floatatom 862 -9 5 0 0 0 - - -;
#X msg 862 19 speed \$1;
#N canvas 797 283 450 287 pack_pos 0;
#X obj 136 70 r \$0-x;
#X obj 243 65 r \$0-y;
#X floatatom 81 70 5 0 0 0 - - -;
#X obj 115 119 *;
#X obj 163 119 *;
#X obj 23 34 inlet;
#X obj 119 204 outlet;
#X obj 120 159 pack f f 0 0.1 0.05;
#X connect 0 0 3 0;
#X connect 1 0 4 0;
#X connect 2 0 3 1;
#X connect 2 0 4 1;
#X connect 3 0 7 0;
#X connect 4 0 7 1;
#X connect 5 0 2 0;
#X connect 7 0 6 0;
#X restore 1051 161 pd pack_pos;
#X text 1077 11 outer size of portal;
#X obj 1045 478 s age;
#X obj 1208 890 r age;
#X obj 815 1127 r age;
#X obj 1680 1225;
#X text 322 995 size pulse;
#X text 698 -153 speed of parts;
#X obj 709 -184 r part_speed;
#X text 812 1100 fill thresh;
#X obj 883 1131 r fill_thres;
#X obj 1046 447 /;
#X obj 1043 334 r max_age;
#X obj 1115 125 r outer_r;
#X obj 1210 1007 r age;
#X obj 198 1180 s s_ps;
#X obj 1328 1041 r s_ps;
#X floatatom 899 167 5 0 0 0 - - -;
#N canvas 0 0 952 1108 color_control 0;
#X obj 141 166 inlet;
#X obj 213 168 inlet;
#X obj 291 165 inlet;
#X obj 131 360 outlet;
#X obj 232 356 outlet;
#X obj 313 356 outlet;
#X obj 178 238 r age;
#X text 472 115 color age;
#X obj 140 312 +;
#X obj 173 272 *;
#X text 149 149 red;
#X text 217 139 green;
#X text 300 135 bluuu;
#X obj 271 239 r age;
#X obj 236 321 +;
#X obj 271 286 *;
#X obj 343 238 r age;
#X obj 335 322 +;
#X obj 370 287 *;
#X obj 459 159 inlet;
#X obj 534 159 inlet;
#X obj 380 165 inlet;
#X text 389 135 rx;
#X text 474 134 gx;
#X text 546 134 bx;
#X connect 0 0 8 1;
#X connect 1 0 14 1;
#X connect 2 0 17 1;
#X connect 6 0 9 0;
#X connect 8 0 3 0;
#X connect 9 0 8 0;
#X connect 13 0 15 0;
#X connect 14 0 4 0;
#X connect 15 0 14 0;
#X connect 16 0 18 0;
#X connect 17 0 5 0;
#X connect 18 0 17 0;
#X connect 19 0 15 1;
#X connect 20 0 18 1;
#X connect 21 0 9 1;
#X restore 938 756 pd color_control;
#X text 1528 302 fade in/out;
#X floatatom 1534 395 5 0 0 0 - - -;
#X floatatom 1222 480 5 0 0 0 - - -;
#X obj 1146 1120 cube;
#X floatatom 1399 481 5 0 0 0 - - -;
#X obj 1222 545 f;
#X floatatom 1222 607 5 0 0 0 - - -;
#X obj 1222 513 t b f;
#X obj 1399 513 t b f;
#X obj 1399 544 f;
#X obj 1222 578 expr min($f1 \, $f2);
#X obj 1167 391 r age, f 7;
#X obj 1534 334 r fadepoint;
#X obj 1167 424 expr 1-((max($f1 \, $f2)-$f2)/(1-$f2)) \; min($f1 \,
$f2)/$f2;
#X obj 1534 364 expr max($f1 \, .01);
#X obj 197 1084 lineosc;
#X obj 198 1117 *;
#X obj 1409 1037 r particle_size;
#X obj 1253 1080 expr $f1+$f2+$f3;
#X msg 835 366 0 0 0;
#X obj 862 253 part_sink sphere 0 0 0 0.5 0;
#X obj 136 764 r snapshot;
#X obj 324 764 r y_freq;
#X obj 240 764 r x_freq;
#X obj 282 732 r x_phase;
#X obj 348 795 r y_phase;
#N canvas 0 0 952 1110 state_machine 0;
#X obj 45 146 inlet;
#X obj 45 179 list trim;
#X floatatom 163 316 5 0 0 0 - - -;
#X floatatom 284 318 5 0 0 0 - - -;
#X floatatom 421 317 5 0 0 0 - - -;
#X floatatom 560 318 5 0 0 0 - - -;
#X floatatom 678 317 5 0 0 0 - - -;
#X floatatom 797 318 5 0 0 0 - - -;
#X floatatom 902 318 5 0 0 0 - - -;
#X floatatom 1214 308 5 0 0 0 - - -;
#X floatatom 1295 310 5 0 0 0 - - -;
#X floatatom 1377 309 5 0 0 0 - - -;
#X floatatom 1549 313 5 0 0 0 - - -;
#X floatatom 1000 172 5 0 0 0 - - -;
#X floatatom 1001 202 5 0 0 0 - - -;
#X floatatom 1002 230 5 0 0 0 - - -;
#X obj 49 475 t b f;
#X obj 48 512 s \$0-banger;
#X obj 226 540 t b f;
#X obj 225 577 s \$0-banger;
#X obj 298 498 t b f;
#X obj 297 535 s \$0-banger;
#X obj 423 504 t b f;
#X obj 424 542 s \$0-banger;
#X obj 524 471 t b f;
#X obj 523 508 s \$0-banger;
#X obj 645 513 t b f;
#X obj 644 550 s \$0-banger;
#X obj 719 475 t b f;
#X obj 718 512 s \$0-banger;
#X obj 968 455 t b f;
#X obj 965 490 s \$0-banger;
#X obj 1094 473 t b f;
#X obj 1093 510 s \$0-banger;
#X obj 1211 465 t b f;
#X obj 1211 498 s \$0-banger;
#X obj 1335 468 t b f;
#X obj 1332 504 s \$0-banger;
#X obj 1461 448 t b f;
#X obj 1460 485 s \$0-banger;
#X obj 1538 523 t b f;
#X obj 1537 560 s \$0-banger;
#X obj 532 628 r \$0-banger;
#X floatatom 1470 313 5 0 0 0 - - -;
#X floatatom 1001 256 5 0 0 0 - - -;
#X obj 3143 164;
#X obj 3155 900;
#X obj 1668 522 t b f;
#X obj 1667 559 s \$0-banger;
#X floatatom 1640 316 5 0 0 0 - - -;
#X text 1061 166 r;
#X text 1062 196 g;
#X text 1063 226 b;
#X floatatom 1123 309 5 0 0 0 - - -;
#X obj -493 846 line;
#X obj 333 1248;
#X obj 226 769 array define state_replay;
#X obj 874 748 r \$0-savebanger;
#X obj 875 838 array get state_replay;
#X obj 297 845 vsl 50 128 10 10000 0 0 empty empty Transition_speed
0 -9 0 10 -203904 -1 -1 0 1;
#X obj 262 982 s \$0-trans_speed;
#X obj 104 827 bng 68 250 50 0 empty empty SAVE 17 7 0 45 -45076 -1
-262130;
#X obj 74 980 s \$0-savebanger;
#X obj 234 613 loadbang;
#X msg -41 1162 list /age_depth \$1;
#X msg 376 1164 list /pulse_size \$1;
#X obj 247 725 array define state_current;
#X obj 916 673 array set state_current;
#X obj 874 776 array get state_current;
#X obj 874 806 array set state_replay;
#X obj 619 840 array get state_current;
#X obj -41 1191 s from_state;
#N canvas -904 -4 900 1402 trans 0;
#X obj 141 146 r \$0-trans_speed;
#X obj 63 208 line;
#X obj 63 177 pack f f;
#X obj 63 145 inlet;
#X obj 63 238 outlet;
#X obj 141 112 inlet;
#X connect 0 0 2 1;
#X connect 1 0 4 0;
#X connect 2 0 1 0;
#X connect 3 0 2 0;
#X connect 5 0 1 0;
#X restore -40 1124 pd trans;
#X obj 155 1191 s from_state;
#N canvas -904 -4 900 1402 trans 0;
#X obj 141 146 r \$0-trans_speed;
#X obj 63 208 line;
#X obj 63 177 pack f f;
#X obj 63 145 inlet;
#X obj 63 238 outlet;
#X obj 141 112 inlet;
#X connect 0 0 2 1;
#X connect 1 0 4 0;
#X connect 2 0 1 0;
#X connect 3 0 2 0;
#X connect 5 0 1 0;
#X restore 154 1125 pd trans;
#X msg 154 1162 list /particle_size \$1;
#X obj 376 1194 s from_state;
#N canvas -904 -4 900 1402 trans 0;
#X obj 141 146 r \$0-trans_speed;
#X obj 63 208 line;
#X obj 63 177 pack f f;
#X obj 63 145 inlet;
#X obj 63 238 outlet;
#X obj 141 112 inlet;
#X connect 0 0 2 1;
#X connect 1 0 4 0;
#X connect 2 0 1 0;
#X connect 3 0 2 0;
#X connect 5 0 1 0;
#X restore 386 1125 pd trans;
#N canvas -904 0 900 1402 trans 0;
#X obj 141 146 r \$0-trans_speed;
#X obj 63 208 line;
#X obj 63 177 pack f f;
#X obj 63 145 inlet;
#X obj 63 238 outlet;
#X obj 141 112 inlet;
#X connect 0 0 2 1;
#X connect 1 0 4 0;
#X connect 2 0 1 0;
#X connect 3 0 2 0;
#X connect 5 0 1 0;
#X restore 592 1120 pd trans;
#N canvas -904 -4 900 1402 trans 0;
#X obj 141 146 r \$0-trans_speed;
#X obj 63 208 line;
#X obj 63 177 pack f f;
#X obj 63 145 inlet;
#X obj 63 238 outlet;
#X obj 141 112 inlet;
#X connect 0 0 2 1;
#X connect 1 0 4 0;
#X connect 2 0 1 0;
#X connect 3 0 2 0;
#X connect 5 0 1 0;
#X restore 803 1116 pd trans;
#X obj 597 1188 s from_state;
#X msg 597 1158 list /pulse_depth \$1;
#X obj 807 1187 s from_state;
#X msg 807 1157 list /part_speed \$1;
#N canvas -904 -4 900 1402 trans 0;
#X obj 141 146 r \$0-trans_speed;
#X obj 63 208 line;
#X obj 63 177 pack f f;
#X obj 63 145 inlet;
#X obj 63 238 outlet;
#X obj 141 112 inlet;
#X connect 0 0 2 1;
#X connect 1 0 4 0;
#X connect 2 0 1 0;
#X connect 3 0 2 0;
#X connect 5 0 1 0;
#X restore 1009 1115 pd trans;
#X obj 1014 1190 s from_state;
#X msg 1015 1160 list /fill_thres \$1;
#N canvas -904 -4 900 1402 trans 0;
#X obj 141 146 r \$0-trans_speed;
#X obj 63 208 line;
#X obj 63 177 pack f f;
#X obj 63 145 inlet;
#X obj 63 238 outlet;
#X obj 141 112 inlet;
#X connect 0 0 2 1;
#X connect 1 0 4 0;
#X connect 2 0 1 0;
#X connect 3 0 2 0;
#X connect 5 0 1 0;
#X restore 1214 1114 pd trans;
#X obj 1216 1190 s from_state;
#X msg 1217 1160 list /max_age \$1;
#N canvas -904 -4 900 1402 trans 0;
#X obj 141 146 r \$0-trans_speed;
#X obj 63 208 line;
#X obj 63 177 pack f f;
#X obj 63 145 inlet;
#X obj 63 238 outlet;
#X obj 141 112 inlet;
#X connect 0 0 2 1;
#X connect 1 0 4 0;
#X connect 2 0 1 0;
#X connect 3 0 2 0;
#X connect 5 0 1 0;
#X restore 1368 1096 pd trans;
#X obj 1392 1216 s from_state;
#N canvas -904 -4 900 1402 trans 0;
#X obj 141 146 r \$0-trans_speed;
#X obj 63 208 line;
#X obj 63 177 pack f f;
#X obj 63 145 inlet;
#X obj 63 238 outlet;
#X obj 141 112 inlet;
#X connect 0 0 2 1;
#X connect 1 0 4 0;
#X connect 2 0 1 0;
#X connect 3 0 2 0;
#X connect 5 0 1 0;
#X restore 1423 1067 pd trans;
#N canvas -904 -4 900 1402 trans 0;
#X obj 141 146 r \$0-trans_speed;
#X obj 63 208 line;
#X obj 63 177 pack f f;
#X obj 63 145 inlet;
#X obj 63 238 outlet;
#X obj 141 112 inlet;
#X connect 0 0 2 1;
#X connect 1 0 4 0;
#X connect 2 0 1 0;
#X connect 3 0 2 0;
#X connect 5 0 1 0;
#X restore 1469 1097 pd trans;
#N canvas -904 -4 900 1402 trans 0;
#X obj 141 146 r \$0-trans_speed;
#X obj 63 208 line;
#X obj 63 177 pack f f;
#X obj 63 145 inlet;
#X obj 63 238 outlet;
#X obj 141 112 inlet;
#X connect 0 0 2 1;
#X connect 1 0 4 0;
#X connect 2 0 1 0;
#X connect 3 0 2 0;
#X connect 5 0 1 0;
#X restore 1519 1065 pd trans;
#N canvas -904 -4 900 1402 trans 0;
#X obj 141 146 r \$0-trans_speed;
#X obj 63 208 line;
#X obj 63 177 pack f f;
#X obj 63 145 inlet;
#X obj 63 238 outlet;
#X obj 141 112 inlet;
#X connect 0 0 2 1;
#X connect 1 0 4 0;
#X connect 2 0 1 0;
#X connect 3 0 2 0;
#X connect 5 0 1 0;
#X restore 1727 1082 pd trans;
#X obj 1725 1144 s from_state;
#X msg 1726 1114 list /snapshot \$1;
#N canvas -904 -4 900 1402 trans 0;
#X obj 141 146 r \$0-trans_speed;
#X obj 63 208 line;
#X obj 63 177 pack f f;
#X obj 63 145 inlet;
#X obj 63 238 outlet;
#X obj 141 112 inlet;
#X connect 0 0 2 1;
#X connect 1 0 4 0;
#X connect 2 0 1 0;
#X connect 3 0 2 0;
#X connect 5 0 1 0;
#X restore 1929 1082 pd trans;
#X obj 1924 1149 s from_state;
#N canvas -904 -4 900 1402 trans 0;
#X obj 141 146 r \$0-trans_speed;
#X obj 63 208 line;
#X obj 63 177 pack f f;
#X obj 63 145 inlet;
#X obj 63 238 outlet;
#X obj 141 112 inlet;
#X connect 0 0 2 1;
#X connect 1 0 4 0;
#X connect 2 0 1 0;
#X connect 3 0 2 0;
#X connect 5 0 1 0;
#X restore 2103 1077 pd trans;
#X obj 2100 1145 s from_state;
#X msg 2101 1115 list /y_freq \$1;
#X msg 1925 1119 list /x_freq \$1;
#N canvas -904 -4 900 1402 trans 0;
#X obj 141 146 r \$0-trans_speed;
#X obj 63 208 line;
#X obj 63 177 pack f f;
#X obj 63 145 inlet;
#X obj 63 238 outlet;
#X obj 141 112 inlet;
#X connect 0 0 2 1;
#X connect 1 0 4 0;
#X connect 2 0 1 0;
#X connect 3 0 2 0;
#X connect 5 0 1 0;
#X restore 2270 1085 pd trans;
#X obj 2268 1147 s from_state;
#N canvas -904 -4 900 1402 trans 0;
#X obj 141 146 r \$0-trans_speed;
#X obj 63 208 line;
#X obj 63 177 pack f f;
#X obj 63 145 inlet;
#X obj 63 238 outlet;
#X obj 141 112 inlet;
#X connect 0 0 2 1;
#X connect 1 0 4 0;
#X connect 2 0 1 0;
#X connect 3 0 2 0;
#X connect 5 0 1 0;
#X restore 2447 1085 pd trans;
#X obj 2447 1148 s from_state;
#X msg 2269 1117 list /x_phase \$1;
#X msg 2448 1118 list /y_phase \$1;
#N canvas -904 -4 900 1402 trans 0;
#X obj 141 146 r \$0-trans_speed;
#X obj 63 208 line;
#X obj 63 177 pack f f;
#X obj 63 145 inlet;
#X obj 63 238 outlet;
#X obj 141 112 inlet;
#X connect 0 0 2 1;
#X connect 1 0 4 0;
#X connect 2 0 1 0;
#X connect 3 0 2 0;
#X connect 5 0 1 0;
#X restore 2625 1090 pd trans;
#X obj 2624 1151 s from_state;
#X msg 2625 1121 list /outer_r \$1;
#N canvas -904 -4 900 1402 trans 0;
#X obj 141 146 r \$0-trans_speed;
#X obj 63 208 line;
#X obj 63 177 pack f f;
#X obj 63 145 inlet;
#X obj 63 238 outlet;
#X obj 141 112 inlet;
#X connect 0 0 2 1;
#X connect 1 0 4 0;
#X connect 2 0 1 0;
#X connect 3 0 2 0;
#X connect 5 0 1 0;
#X restore 2805 1087 pd trans;
#X obj 2805 1149 s from_state;
#X msg 2806 1119 list /fadepoint \$1;
#X obj 909 951 t b;
#X obj 793 441 t b l;
#X obj 781 476 s \$0-banger;
#X obj 61 762 r save_state;
#X obj 267 804 r trans_speed;
#X obj 2074 652 r \$0-savebanger;
#X obj 2071 685 array get state_current;
#X obj 2533 749 text define all_save_states;
#X obj 2533 680 loadbang;
#X msg 2533 713 read uzi_saves/all_save_states.txt;
#X obj 2256 658 text set all_save_states;
#X msg 2404 623 99999;
#X obj 2414 587 loadbang;
#X obj 2119 717 del 20;
#X obj 2081 717 t b;
#X msg 2162 751 write uzi_saves/all_save_states.txt;
#X obj 2267 720 text size all_save_states;
#X obj 2191 720 del 20;
#X obj 2329 690 s \$0-num_saves;
#X floatatom 2354 113 5 2000 1e+006 0 - - -;
#X obj 2232 213 tgl 15 0 empty empty empty 17 7 0 10 -262144 -1 -1
0 1;
#X obj 2263 218 metro 10000;
#X obj 2264 291 random;
#X obj 2395 252 text size all_save_states;
#X obj 2394 191 loadbang;
#X msg 2394 224 bang;
#X obj 2266 355 text get all_save_states;
#X obj 628 711 t b l;
#X floatatom 2264 322 5 0 0 0 - - -;
#X obj 2231 180 r randomload;
#X obj 2370 145 r linger_time;
#X obj 2048 261 r skip_next;
#X msg 2354 82 10000;
#X obj 2354 54 loadbang;
#X obj 2090 357 r load_state_num;
#X text 722 274 STATE:;
#X text 594 272 >>>>>>>>>>>>;
#X text 792 272 <<<<<<<<<<<<<<<<;
#X obj 589 679 r \$0-load_state;
#X obj 2266 394 s \$0-load_state;
#X obj 882 529 unpack f f f f f f;
#X floatatom 1001 283 5 0 0 0 - - -;
#X floatatom 1002 310 5 0 0 0 - - -;
#X text 1054 256 rx;
#X text 1054 283 gx;
#X text 1055 312 bx;
#X msg 1392 1177 list /color_RGB_rgbx \$1 \$2 \$3 \$4 \$5 \$6;
#X obj 1390 1145 pack f f f f f f;
#N canvas -904 -4 900 1402 trans 0;
#X obj 141 146 r \$0-trans_speed;
#X obj 63 208 line;
#X obj 63 177 pack f f;
#X obj 63 145 inlet;
#X obj 63 238 outlet;
#X obj 141 112 inlet;
#X connect 0 0 2 1;
#X connect 1 0 4 0;
#X connect 2 0 1 0;
#X connect 3 0 2 0;
#X connect 5 0 1 0;
#X restore 1563 1096 pd trans;
#N canvas -904 -4 900 1402 trans 0;
#X obj 141 146 r \$0-trans_speed;
#X obj 63 208 line;
#X obj 63 177 pack f f;
#X obj 63 145 inlet;
#X obj 63 238 outlet;
#X obj 141 112 inlet;
#X connect 0 0 2 1;
#X connect 1 0 4 0;
#X connect 2 0 1 0;
#X connect 3 0 2 0;
#X connect 5 0 1 0;
#X restore 1622 1064 pd trans;
#X obj 73 346 route /age_depth /particle_size /pulse_size /pulse_depth
/part_speed /fill_thres /max_age /color_RGB_rgbx /snapshot /x_freq
/y_freq /x_phase /y_phase /outer_r /fadepoint /2grav_pwr /2grav_pos
, f 192;
#X obj 1813 539 t b f;
#X obj 1807 569 s \$0-banger;
#X obj 1935 567 t b f;
#X obj 1934 604 s \$0-banger;
#X obj 916 643 pack f f f f f f f f f f f f f f f f f f f f f f;
#X floatatom 1799 314 5 0 0 0 - - -;
#X floatatom 1907 315 5 0 0 0 - - -;
#X msg 220 659 resize 22;
#X obj 1119 838 unpack f f f f f f f f f f f f f f f f f f f f f f
, f 137;
#X obj 962 952 unpack f f f f f f f f f f f f f f f f f f f f f f,
f 151;
#N canvas -904 -4 900 1402 trans 0;
#X obj 141 146 r \$0-trans_speed;
#X obj 63 208 line;
#X obj 63 177 pack f f;
#X obj 63 145 inlet;
#X obj 63 238 outlet;
#X obj 141 112 inlet;
#X connect 0 0 2 1;
#X connect 1 0 4 0;
#X connect 2 0 1 0;
#X connect 3 0 2 0;
#X connect 5 0 1 0;
#X restore 3020 1118 pd trans;
#X obj 3016 1178 s from_state;
#X msg 3017 1148 list /2grav_pwr \$1;
#N canvas -904 -4 900 1402 trans 0;
#X obj 141 146 r \$0-trans_speed;
#X obj 63 208 line;
#X obj 63 177 pack f f;
#X obj 63 145 inlet;
#X obj 63 238 outlet;
#X obj 141 112 inlet;
#X connect 0 0 2 1;
#X connect 1 0 4 0;
#X connect 2 0 1 0;
#X connect 3 0 2 0;
#X connect 5 0 1 0;
#X restore 3018 1005 pd trans;
#X obj 3014 1066 s from_state;
#X msg 3016 1036 list /2grav_pos \$1;
#X obj 2150 393 s state_ln;
#X obj 2331 522 f;
#X obj 2331 552 spigot;
#X obj 2326 438 r \$0-savebanger;
#X obj 2363 471 r state_ln;
#X obj 2487 470 r over_dub;
#X obj 2487 505 != 1;
#X obj 2405 551 spigot;
#X floatatom 2336 620 5 0 0 0 - - -;
#X text 2154 143 loading state:;
#X text 2168 594 saving state:;
#X obj 2170 293 + 1;
#X obj 2112 216 r state_ln;
#X obj 2219 290 mod;
#X obj 2170 259 f;
#X obj 2355 290 r \$0-num_saves;
#X connect 0 0 1 0;
#X connect 1 0 166 0;
#X connect 16 0 17 0;
#X connect 16 1 171 0;
#X connect 18 0 19 0;
#X connect 18 1 171 1;
#X connect 20 0 21 0;
#X connect 20 1 171 2;
#X connect 22 0 23 0;
#X connect 22 1 171 3;
#X connect 24 0 25 0;
#X connect 24 1 171 4;
#X connect 26 0 27 0;
#X connect 26 1 171 5;
#X connect 28 0 29 0;
#X connect 28 1 171 6;
#X connect 30 0 31 0;
#X connect 30 1 171 13;
#X connect 32 0 33 0;
#X connect 32 1 171 14;
#X connect 34 0 35 0;
#X connect 34 1 171 15;
#X connect 36 0 37 0;
#X connect 36 1 171 16;
#X connect 38 0 39 0;
#X connect 38 1 171 17;
#X connect 40 0 41 0;
#X connect 40 1 171 18;
#X connect 42 0 171 0;
#X connect 45 0 46 0;
#X connect 47 0 48 0;
#X connect 47 1 171 19;
#X connect 57 0 68 0;
#X connect 58 0 175 0;
#X connect 59 0 60 0;
#X connect 61 0 62 0;
#X connect 63 0 174 0;
#X connect 64 0 71 0;
#X connect 65 0 76 0;
#X connect 68 0 69 0;
#X connect 70 0 176 0;
#X connect 72 0 64 0;
#X connect 74 0 75 0;
#X connect 75 0 73 0;
#X connect 77 0 65 0;
#X connect 78 0 81 0;
#X connect 79 0 83 0;
#X connect 81 0 80 0;
#X connect 83 0 82 0;
#X connect 84 0 86 0;
#X connect 86 0 85 0;
#X connect 87 0 89 0;
#X connect 89 0 88 0;
#X connect 90 0 163 0;
#X connect 92 0 163 1;
#X connect 93 0 163 2;
#X connect 94 0 163 3;
#X connect 95 0 97 0;
#X connect 97 0 96 0;
#X connect 98 0 103 0;
#X connect 100 0 102 0;
#X connect 102 0 101 0;
#X connect 103 0 99 0;
#X connect 104 0 108 0;
#X connect 106 0 109 0;
#X connect 108 0 105 0;
#X connect 109 0 107 0;
#X connect 110 0 112 0;
#X connect 112 0 111 0;
#X connect 113 0 115 0;
#X connect 115 0 114 0;
#X connect 116 0 58 0;
#X connect 117 0 118 0;
#X connect 117 1 156 0;
#X connect 119 0 61 0;
#X connect 120 0 59 0;
#X connect 121 0 122 0;
#X connect 122 0 126 0;
#X connect 122 0 130 0;
#X connect 124 0 125 0;
#X connect 125 0 123 0;
#X connect 127 0 191 0;
#X connect 128 0 127 0;
#X connect 129 0 131 0;
#X connect 129 0 133 0;
#X connect 130 0 129 0;
#X connect 131 0 123 0;
#X connect 132 0 134 0;
#X connect 133 0 132 0;
#X connect 135 0 137 1;
#X connect 136 0 137 0;
#X connect 137 0 138 0;
#X connect 138 0 144 0;
#X connect 139 0 138 1;
#X connect 139 0 196 1;
#X connect 140 0 141 0;
#X connect 141 0 139 0;
#X connect 142 0 155 0;
#X connect 143 0 70 0;
#X connect 143 1 69 0;
#X connect 144 0 142 0;
#X connect 144 0 183 0;
#X connect 145 0 136 0;
#X connect 146 0 137 1;
#X connect 147 0 197 0;
#X connect 148 0 135 0;
#X connect 149 0 148 0;
#X connect 150 0 144 0;
#X connect 154 0 143 0;
#X connect 156 0 13 0;
#X connect 156 0 171 7;
#X connect 156 1 14 0;
#X connect 156 1 171 8;
#X connect 156 2 15 0;
#X connect 156 2 171 9;
#X connect 156 3 44 0;
#X connect 156 3 171 10;
#X connect 156 4 157 0;
#X connect 156 4 171 11;
#X connect 156 5 158 0;
#X connect 156 5 171 12;
#X connect 162 0 91 0;
#X connect 163 0 162 0;
#X connect 164 0 163 4;
#X connect 165 0 163 5;
#X connect 166 0 2 0;
#X connect 166 0 16 0;
#X connect 166 1 3 0;
#X connect 166 1 18 0;
#X connect 166 2 4 0;
#X connect 166 2 20 0;
#X connect 166 3 5 0;
#X connect 166 3 22 0;
#X connect 166 4 6 0;
#X connect 166 4 24 0;
#X connect 166 5 7 0;
#X connect 166 5 26 0;
#X connect 166 6 8 0;
#X connect 166 6 28 0;
#X connect 166 7 117 0;
#X connect 166 8 30 0;
#X connect 166 8 53 0;
#X connect 166 9 9 0;
#X connect 166 9 32 0;
#X connect 166 10 10 0;
#X connect 166 10 34 0;
#X connect 166 11 11 0;
#X connect 166 11 36 0;
#X connect 166 12 38 0;
#X connect 166 12 43 0;
#X connect 166 13 12 0;
#X connect 166 13 40 0;
#X connect 166 14 47 0;
#X connect 166 14 49 0;
#X connect 166 15 167 0;
#X connect 166 15 172 0;
#X connect 166 16 169 0;
#X connect 166 16 173 0;
#X connect 167 0 168 0;
#X connect 167 1 171 20;
#X connect 169 0 170 0;
#X connect 169 1 171 21;
#X connect 171 0 67 0;
#X connect 174 0 56 0;
#X connect 174 0 66 0;
#X connect 175 0 72 0;
#X connect 175 1 74 0;
#X connect 175 2 77 0;
#X connect 175 3 78 0;
#X connect 175 4 79 0;
#X connect 175 5 84 0;
#X connect 175 6 87 0;
#X connect 175 7 90 0;
#X connect 175 8 92 0;
#X connect 175 9 93 0;
#X connect 175 10 94 0;
#X connect 175 11 164 0;
#X connect 175 12 165 0;
#X connect 175 13 95 0;
#X connect 175 14 98 0;
#X connect 175 15 100 0;
#X connect 175 16 104 0;
#X connect 175 17 106 0;
#X connect 175 18 110 0;
#X connect 175 19 113 0;
#X connect 175 20 177 0;
#X connect 175 21 180 0;
#X connect 176 0 72 1;
#X connect 176 0 116 0;
#X connect 176 1 74 1;
#X connect 176 2 77 1;
#X connect 176 3 78 1;
#X connect 176 4 79 1;
#X connect 176 5 84 1;
#X connect 176 6 87 1;
#X connect 176 7 90 1;
#X connect 176 8 92 1;
#X connect 176 9 93 1;
#X connect 176 10 94 1;
#X connect 176 11 164 1;
#X connect 176 12 165 1;
#X connect 176 13 95 1;
#X connect 176 14 98 1;
#X connect 176 15 100 1;
#X connect 176 16 104 1;
#X connect 176 17 106 1;
#X connect 176 18 110 1;
#X connect 176 19 113 1;
#X connect 176 20 177 1;
#X connect 176 21 180 1;
#X connect 177 0 179 0;
#X connect 179 0 178 0;
#X connect 180 0 182 0;
#X connect 182 0 181 0;
#X connect 184 0 185 0;
#X connect 185 0 191 0;
#X connect 186 0 190 0;
#X connect 186 0 184 0;
#X connect 187 0 184 1;
#X connect 188 0 185 1;
#X connect 188 0 189 0;
#X connect 189 0 190 1;
#X connect 190 0 127 0;
#X connect 191 0 126 1;
#X connect 194 0 196 0;
#X connect 195 0 197 1;
#X connect 196 0 144 0;
#X connect 197 0 194 0;
#X connect 198 0 138 1;
#X connect 198 0 196 1;
#X coords 0 1110 1 1109 85 60 0;
#X restore -29 694 pd state_machine;
#X obj 1252 1046 *;
#X obj 1269 1005 r age_depth;
#X obj -30 652 r to_state;
#X text -12 613 state of synth;
#X obj 173 1005 r pulse_depth;
#X obj 312 1118 r pulse_size;
#N canvas -4 -4 1920 1118 throw_state 0;
#X obj -309 69 r age_depth;
#X obj 405 341 r outer_r;
#X obj -101 69 r particle_size;
#X obj -311 353 r snapshot;
#X obj -109 350 r x_freq;
#X obj -14 349 r y_freq;
#X obj 106 351 r x_phase;
#X obj 212 351 r y_phase;
#X text -14 316 draw controls;
#X text -10 28 partice size control;
#X obj -316 227 r part_speed;
#X obj -81 226 r fill_thres;
#X obj 165 219 r max_age;
#X text -7 172 main particle controls;
#X msg -310 98 list /age_depth \$1;
#X obj -309 128 s to_state;
#X obj -99 129 s to_state;
#X msg -99 99 list /particle_size \$1;
#X obj 147 132 s to_state;
#X msg 146 101 list /pulse_size \$1;
#X obj 363 135 s to_state;
#X msg 362 102 list /pulse_depth \$1;
#X obj 146 71 r pulse_size;
#X obj 362 70 r pulse_depth;
#X obj -315 288 s to_state;
#X obj -81 288 s to_state;
#X obj 166 288 s to_state;
#X obj 364 269 s to_state;
#X msg -316 258 list /part_speed \$1;
#X msg -81 257 list /fill_thres \$1;
#X msg 165 256 list /max_age \$1;
#X obj -311 415 s to_state;
#X obj -109 418 s to_state;
#X obj -61 480 s to_state;
#X obj 406 407 s to_state;
#X msg -311 385 list /snapshot \$1;
#X msg -109 387 list /x_freq \$1;
#X msg -62 448 list /y_freq \$1;
#X obj 104 447 s to_state;
#X obj 216 477 s to_state;
#X msg 107 414 list /x_phase \$1;
#X msg 215 445 list /y_phase \$1;
#X msg 405 376 list /outer_r \$1;
#X obj -283 466 r fadepoint;
#X obj -283 532 s to_state;
#X msg -284 502 list /fadepoint \$1;
#X obj 364 203 r color_RGB_rgbx;
#X msg 361 234 list /color_RGB_rgbx \$1 \$2 \$3 \$4 \$5 \$6;
#X obj 412 522 s to_state;
#X obj 411 456 r 2grav_pwr;
#X msg 411 491 list /2grav_pwr \$1;
#X obj 607 521 s to_state;
#X obj 606 455 r 2grav_pos;
#X msg 606 490 list /2grav_pos \$1;
#X floatatom 350 499 5 0 0 0 - - -;
#X floatatom 539 454 5 0 0 0 - - -;
#X connect 0 0 14 0;
#X connect 1 0 42 0;
#X connect 2 0 17 0;
#X connect 3 0 35 0;
#X connect 4 0 36 0;
#X connect 5 0 37 0;
#X connect 6 0 40 0;
#X connect 7 0 41 0;
#X connect 10 0 28 0;
#X connect 11 0 29 0;
#X connect 12 0 30 0;
#X connect 14 0 15 0;
#X connect 17 0 16 0;
#X connect 19 0 18 0;
#X connect 21 0 20 0;
#X connect 22 0 19 0;
#X connect 23 0 21 0;
#X connect 28 0 24 0;
#X connect 29 0 25 0;
#X connect 30 0 26 0;
#X connect 35 0 31 0;
#X connect 36 0 32 0;
#X connect 37 0 33 0;
#X connect 40 0 38 0;
#X connect 41 0 39 0;
#X connect 42 0 34 0;
#X connect 43 0 45 0;
#X connect 45 0 44 0;
#X connect 46 0 47 0;
#X connect 47 0 27 0;
#X connect 49 0 50 0;
#X connect 49 0 54 0;
#X connect 50 0 48 0;
#X connect 52 0 53 0;
#X connect 52 0 55 0;
#X connect 53 0 51 0;
#X restore -17 568 pd throw_state;
#X text 908 -302 gemchain;
#N canvas -904 -137 900 1402 CONTROLS 0;
#X obj -596 1635 cwin, f 10;
#X obj -582 1528 bng 45 250 50 0 empty empty KILL/CREATE_WINDOW 17
7 0 10 -257985 -1 -1;
#X obj -581 1580 bng 45 250 50 0 empty empty TOGGLE_FULLSCREEN 17 7
0 10 -4032 -1 -1;
#X obj -585 1457 loadbang;
#X obj -585 1071 loadbang;
#X msg -520 1112 1;
#X msg -615 1115 0;
#X obj -286 826 vsl 50 150 1 1000 0 0 empty empty Snapshot_delay 0
-9 0 10 -258113 -1 -1 3654 1;
#X obj -558 384 vsl 50 150 0 1000 0 0 empty empty X_freq 0 -9 0 10
-1 -262144 -262144 6571 1;
#X obj -453 383 vsl 50 150 0 1000 0 0 empty empty Y_Freq -20 0 0 10
-1 -262144 -262144 9834 1;
#X obj -365 370 vradio 18 1 0 9 empty empty x_phase 0 -8 0 10 -4032
-1 -1 0;
#X floatatom -354 576 5 0 0 0 - - -;
#X obj -228 377 vradio 18 1 0 9 empty empty y_phase 0 -8 0 10 -4032
-1 -1 6;
#X floatatom -227 573 5 0 0 0 - - -;
#X floatatom -558 545 5 0 0 0 - - -;
#X floatatom -286 983 5 0 0 0 - - -;
#X floatatom -453 547 5 0 0 0 - - -;
#X obj -106 385 vsl 50 150 0.05 10 0 0 empty empty Particle_speed -20
0 0 10 -159808 -1 -1 0 1;
#X floatatom -104 550 5 0 0 0 - - -;
#X obj -105 576 s part_speed;
#X obj 84 1015 s fill_thres;
#X obj 84 824 vsl 50 150 0 1.01 0 0 empty empty Fill_thresh -20 0 0
10 -260097 -1 -1 2065 1;
#X floatatom 85 987 5 0 0 0 - - -;
#X obj -167 1008 s max_age;
#X obj -164 822 vsl 50 150 1 700 0 0 empty empty MAX_age -20 0 0 10
-4034 -1 -1 14346 1;
#X floatatom -167 980 5 0 0 0 - - -;
#X floatatom -518 984 5 0 0 0 - - -;
#X obj -519 1012 s outer_r;
#X obj -160 1168 vsl 50 150 -2 2 0 0 empty empty Pulse_Size -20 0 0
10 -4160 -261234 -261234 4656 1;
#X floatatom -184 1329 5 0 0 0 - - -;
#X obj -517 827 vsl 50 150 0.1 55 0 0 empty empty outer_Radius -20
0 0 10 -257985 -1 -1 6514 1;
#X msg -560 341 40.2;
#X obj -560 310 loadbang;
#X msg -507 341 0.8;
#X obj 561 698 tgl 90 0 empty empty g_bomb 17 7 0 20 -13381 -1 -1 0
1;
#X obj -66 1169 vsl 50 150 100 100000 0 0 empty empty pulse_depth -20
0 0 10 -203904 -1 -1 10675 1;
#X floatatom -91 1328 9 0 0 0 - - -;
#X obj -107 323 loadbang;
#X msg -106 353 0.631;
#X obj 495 557 vsl 20 150 150 500000 0 0 empty empty bomb_osc_speed_corse
0 -9 0 10 -86277 -1 -1 0 1;
#N canvas -904 -137 900 1402 gravitytbomb 0;
#X obj 286 121 part_orbitpoint;
#X obj 241 60 gemhead;
#X msg 359 86 0 0 \$1;
#X obj 382 -115 inlet;
#X obj 784 339;
#X obj 822 304;
#X obj 545 -69 inlet;
#X text 454 -64 grav pwr;
#X text 317 -115 z pos;
#X obj 240 -3 loadbang;
#X obj 240 32 tgl 15 0 empty empty empty 17 7 0 10 -262144 -1 -1 1
1;
#X floatatom 342 -55 5 0 0 0 - - -;
#X floatatom 546 -27 5 0 0 0 - - -;
#X obj 624 -42 loadbang;
#X msg 624 -12 0;
#X connect 1 0 0 0;
#X connect 2 0 0 1;
#X connect 3 0 2 0;
#X connect 3 0 11 0;
#X connect 4 0 5 0;
#X connect 6 0 12 0;
#X connect 9 0 10 0;
#X connect 10 0 1 0;
#X connect 12 0 0 2;
#X connect 13 0 14 0;
#X connect 14 0 12 0;
#X restore 599 1057 pd gravitytbomb;
#X obj 530 577 vsl 20 150 0 2500 0 0 empty empty bomb_osc_speed_fine
0 -9 0 10 -102401 -1 -1 0 1;
#X obj 465 849 +;
#X obj 497 807 t b f;
#X obj -519 766 loadbang;
#X obj -561 1169 vsl 40 150 0 1 0 0 empty empty RED -20 0 0 10 -258113
-1 -1 4619 1;
#X obj -503 1168 vsl 40 150 0 1 0 0 empty empty GREEN -20 0 0 10 -4034
-1 -1 12963 1;
#X obj -447 1168 vsl 40 150 0 1 0 0 empty empty BLUE -20 0 0 10 -4160
-204800 -204800 4321 1;
#X obj -31 824 vsl 50 150 0 1 0 0 empty empty Fade_Point 0 -9 0 10
-204786 -1 -1 5215 1;
#X floatatom -32 983 5 0 0 0 - - -;
#X obj -33 1009 s fadepoint;
#X floatatom 39 549 5 0 0 0 - - -;
#X obj 36 390 vsl 50 150 -10 15 0 0 empty empty cube_size -20 0 0 10
-66577 -262144 -262144 3576 0;
#X obj 38 329 loadbang;
#X obj 39 578 s particle_size;
#X floatatom -405 983 5 0 0 0 - - -;
#X obj -404 826 vsl 50 150 -6 6 0 0 empty empty age_depth -20 0 0 10
-128992 -261234 -261234 12417 1;
#X obj -401 766 loadbang;
#X msg -401 794 1;
#X obj -406 1011 s age_depth;
#X msg -159 1142 0;
#X obj -158 1112 loadbang;
#X obj -286 1011 s snapshot;
#X obj -453 579 s y_freq;
#X obj -558 578 s x_freq;
#X msg 38 358 -0.23;
#X obj -355 635 s x_phase;
#X obj -231 636 s y_phase;
#X obj -326 383 vsl 50 150 0 1 0 0 empty empty X_Phase 0 -9 0 10 -228856
-1 -1 5215 1;
#X obj -205 386 vsl 50 150 0 1 0 0 empty empty Y_Phase 0 -9 0 10 -228856
-1 -1 6705 1;
#X obj -353 543 / 8;
#X obj -227 543 / 8;
#X floatatom -512 1341 5 0 0 0 - - -;
#X floatatom -572 1342 5 0 0 0 - - -;
#X floatatom -453 1339 5 0 0 0 - - -;
#X obj -227 1360 s pulse_size;
#X obj -97 1362 s pulse_depth;
#X obj -30 757 loadbang;
#X msg -30 786 0.2;
#X obj 561 1615;
#N canvas 262 157 839 396 colorstuff 0;
#X obj 247 52 t b f;
#X obj 313 53 t b f;
#X obj 384 54 t b f;
#X obj 171 18 inlet;
#X obj 247 14 inlet;
#X obj 314 12 inlet;
#X obj 386 15 inlet;
#X obj 252 292 pack f f f f f f;
#X obj 463 16 inlet;
#X obj 535 16 inlet;
#X obj 455 55 t b f;
#X obj 532 55 t b f;
#X obj 254 328 s color_RGB_rgbx;
#X connect 0 0 7 0;
#X connect 0 1 7 1;
#X connect 1 0 7 0;
#X connect 1 1 7 2;
#X connect 2 0 7 0;
#X connect 2 1 7 3;
#X connect 3 0 7 0;
#X connect 4 0 0 0;
#X connect 5 0 1 0;
#X connect 6 0 2 0;
#X connect 7 0 12 0;
#X connect 8 0 10 0;
#X connect 9 0 11 0;
#X connect 10 0 7 0;
#X connect 10 1 7 4;
#X connect 11 0 7 0;
#X connect 11 1 7 5;
#X restore -585 1380 pd colorstuff;
#X obj 558 802 vsl 100 150 0 12 0 0 empty empty bomb_osc_Distance 0
-9 0 10 -86853 -1 -1 0 1;
#X obj -286 760 loadbang;
#X msg -286 789 1;
#X obj -168 760 loadbang;
#X obj -62 1104 loadbang;
#X obj 134 755 loadbang;
#X msg 137 785 0.7;
#X obj -460 616 tgl 35 0 empty empty (LOCK) 17 7 0 10 -261234 -1 -1
0 1;
#X obj -536 624 spigot;
#X obj 561 590 loadbang;
#X msg 561 667 0;
#X obj -371 300 loadbang;
#X msg -371 330 0.25;
#X msg -199 337 0;
#X obj 195 940 s alpha_val;
#X floatatom 195 911 5 0 19 0 - - -;
#X obj 192 849 loadbang;
#N canvas -4 -4 1920 1118 catch_state 0;
#X obj 491 194 r from_state;
#X obj 491 223 list trim;
#X obj 491 252 s \$0-from_state;
#X connect 0 0 1 0;
#X connect 1 0 2 0;
#X restore 266 1561 pd catch_state;
#X obj -562 707 r \$0-from_state;
#X obj -449 709 r \$0-from_state;
#X obj -448 736 route /age_depth;
#X obj -562 736 route /outer_r;
#X obj -321 708 r \$0-from_state;
#X obj -320 735 route /snapshot;
#X obj -193 707 r \$0-from_state;
#X obj -192 734 route /max_age;
#X obj -46 704 r \$0-from_state;
#X obj -45 731 route /fadepoint;
#X obj 107 702 r \$0-from_state;
#X obj 107 732 route /fill_thres;
#X obj -577 252 r \$0-from_state;
#X obj -455 187 r \$0-from_state;
#X obj -576 279 route /x_freq;
#X obj -454 214 route /y_freq;
#X obj -241 187 r \$0-from_state;
#X obj -395 246 r \$0-from_state;
#X obj -240 214 route /y_phase;
#X obj -185 266 r \$0-from_state;
#X obj -186 293 route /part_speed;
#X obj -15 236 r \$0-from_state;
#X obj -16 263 route /particle_size;
#X obj -257 1044 r \$0-from_state;
#X obj -258 1071 route /pulse_size;
#X obj -95 1044 r \$0-from_state;
#X obj -98 1071 route /pulse_depth;
#X obj -478 1049 r \$0-from_state;
#X obj -393 278 route /x_phase;
#X obj -354 605 change;
#X obj -229 604 change;
#X obj 43 1239 bng 68 250 50 0 empty empty SAVE 17 7 0 45 -45076 -1
-262130;
#X obj 47 1354 bng 68 250 50 0 empty empty LOAD_SAVE 17 7 0 10 -159808
-1 -1;
#X obj -131 1492 vsl 50 128 10 100000 0 0 empty empty Transition_speed
0 -9 0 10 -203904 -1 -1 0 1;
#X obj 38 1315 s save_state;
#X obj -138 1634 s trans_speed;
#X msg 566 961 10;
#X obj 613 960 loadbang;
#X obj 40 1196 s randomload;
#X obj 43 1122 tgl 68 0 empty empty RANDOMLOAD 17 7 0 37 -262130 -1
-1 0 1;
#X obj -36 1485 vsl 50 128 1000 100000 0 0 empty empty Linger? 0 -9
0 10 -204800 -1 -1 4800 1;
#X obj -68 1699 s linger_time;
#X floatatom -50 1669 12 0 0 0 - - -;
#X floatatom -136 1667 8 0 0 0 - - -;
#X obj 46 1438 s skip_next;
#X obj 247 1470 s load_state_num;
#X floatatom 358 1437 5 0 0 0 - - -;
#X text 205 1401 load by number;
#X text 486 1388 ADD ROTATION WEIGHT x/y/z?;
#X text 506 1422 FIX CAMERA?;
#X text 520 1359 future changes:;
#X text 496 1444 "tv static" textures?;
#X text 505 1466 make an eye on a cube "boss";
#X msg -62 1134 100000;
#X obj -386 1180 vsl 30 150 -1 1 0 0 empty empty Red_Blend -20 0 0
10 -260779 -1 -1 13112 1;
#X obj -331 1180 vsl 30 150 -1 1 0 0 empty empty Green_Blend -20 0
0 10 -172011 -1 -1 12516 1;
#X obj -264 1180 vsl 30 150 -1 1 0 0 empty empty Blue_Blend -20 0 0
10 -124800 -1 -1 12218 1;
#X obj -272 1114 loadbang;
#X floatatom -333 1339 5 0 0 0 - - -;
#X floatatom -389 1338 5 0 0 0 - - -;
#X floatatom -270 1339 5 0 0 0 - - -;
#X msg -378 1145 0.9;
#X msg -326 1146 0.05;
#X msg -276 1143 0;
#X obj -478 1078 route /color_RGB_rgbx;
#X obj -471 1109 unpack f f f f f f;
#X msg -568 1112 0;
#X obj -422 1482 vsl 100 150 -0.5 0.5 0 0 empty empty 2ND_GravWell_Power
0 -9 0 10 -4032 -260097 -260097 2980 1;
#X obj -312 1482 vsl 100 150 -12 12 0 0 empty empty 2ND_GravWell_Position
0 -9 0 10 -262130 -159808 -159808 6208 1;
#X msg -471 1406 0;
#X floatatom 509 963 5 0 0 0 - - -;
#X floatatom -420 1641 5 0 0 0 - - -;
#X floatatom -306 1640 5 0 0 0 - - -;
#X obj -441 1697 s 2grav_pwr;
#X obj -307 1699 s 2grav_pos;
#X msg -426 1404 0.11;
#X obj 461 1056 lineosc;
#X msg 417 990 100000;
#X obj 415 961 loadbang;
#X obj 466 1087 * 10;
#X floatatom 460 1028 10 0 0 0 - - -;
#X obj -420 1669 change;
#X obj -307 1668 change;
#X obj -378 1399 r \$0-from_state;
#X obj -381 1426 route /2grav_pwr;
#X obj -219 1384 r \$0-from_state;
#X obj -220 1409 route /2grav_pos;
#X floatatom 522 1090 5 0 0 0 - - -;
#X msg -517 793 20;
#X msg -167 790 198;
#X obj 599 1020 r 2grav_pos;
#X obj 746 1019 r 2grav_pwr;
#X obj -471 1453 bng 45 250 50 0 empty empty 0_GRAV_POW 17 7 0 10 -204800
-258113 -258113;
#X obj 463 1121 s \$0-2grav_pos;
#X obj -207 1432 r \$0-2grav_pos;
#X obj 257 913 alpha;
#X obj 563 632 del 50;
#X text 486 1245 IMOPRTANT ADDDDDDIONSSS;
#X obj 349 1320 r state_ln;
#X obj 348 1349 change;
#X obj 207 1366 s over_dub;
#X obj 207 1289 tgl 68 0 empty empty OVERDUB 17 7 0 37 -258113 -257985
-257985 0 1;
#X msg 196 879 5;
#X obj 58 1517 tgl 68 0 empty empty SOUNDGLITCH 17 7 0 37 -45076 -232576
-232576 0 1;
#X obj 55 1591 s soundglitch;
#X text 115 1258 saves to end unless vvv;
#X msg 371 1400 13;
#N canvas 960 0 952 1110 mutator 1;
#X obj 1311 454 random 1000;
#X obj 1457 450 random 1000;
#X obj 1234 558 s x_freq;
#X obj 1421 552 s y_freq;
#X obj 1278 520 s from_state;
#X obj 1450 519 s from_state;
#X msg 1451 489 list /y_freq \$1;
#X msg 1279 490 list /x_freq \$1;
#X obj 1636 590 s x_phase;
#X obj 1847 577 s y_phase;
#X obj 1642 457 random 100;
#X obj 1642 487 / 100;
#X obj 1816 450 random 100;
#X obj 1816 479 / 100;
#X msg 1629 523 list /x_phase \$1;
#X msg 1813 517 list /y_phase \$1;
#X obj 1624 556 s from_state;
#X obj 1814 549 s from_state;
#X msg 1289 791 list /fadepoint \$1;
#X msg 1527 815 list /snapshot \$1;
#X msg 2094 524 list /outer_r \$1;
#X msg 2064 827 list /2grav_pwr \$1;
#X msg 1837 833 list /2grav_pos \$1;
#X text 1589 362 draw controls;
#X text 1426 50 main particle controls;
#X text 1409 -281 partice size control;
#X obj 1316 408 r mu_bang;
#X obj 1452 406 r mu_bang;
#X obj 1651 415 r mu_bang;
#X obj 1824 408 r mu_bang;
#X obj 2081 408 r mu_bang;
#X obj 2056 588 s outer_r;
#X obj 2095 556 s from_state;
#X obj 1286 720 random 100;
#X obj 1286 749 / 100;
#X obj 1294 678 r mu_bang;
#X obj 1290 821 s from_state;
#X obj 1527 845 s from_state;
#X obj 1838 864 s from_state;
#X obj 2065 862 s from_state;
#X obj 1244 855 s fadepoint;
#X obj 1570 688 r mu_bang;
#X obj 1564 730 random 999;
#X obj 1563 759 + 1;
#X obj 1567 879 s snapshot;
#X obj 2069 710 random 100;
#X obj 2069 739 / 100;
#X obj 2068 783 - 0.5;
#X obj 1831 725 random 24;
#X obj 1832 754 - 12;
#X obj 2068 681 r mu_bang;
#X obj 1828 687 r mu_bang;
#X obj 2041 893 s 2grav_pwr;
#X obj 1788 895 s 2grav_pos;
#X obj 871 978 s mu_bang;
#X msg 1834 285 list /color_RGB_rgbx \$1 \$2 \$3 \$4 \$5 \$6;
#X obj 1880 -171 random 100;
#X obj 1880 -142 / 100;
#X obj 2117 -166 r mu_bang;
#X obj 1907 243 pack f f f f f f;
#X obj 1929 -111 random 100;
#X obj 1929 -82 / 100;
#X obj 1961 -52 random 100;
#X obj 1961 -23 / 100;
#X obj 2019 -23 random 100;
#X obj 2020 6 / 50;
#X obj 2020 35 - 1;
#X obj 2037 67 random 100;
#X obj 2038 96 / 50;
#X obj 2038 125 - 1;
#X obj 2064 154 random 100;
#X obj 2065 183 / 50;
#X obj 2065 212 - 1;
#X obj 1878 321 s from_state;
#X obj 1812 353 s color_RGB_rgbx;
#X msg 1408 232 list /fill_thres \$1;
#X msg 1654 231 list /max_age \$1;
#X msg 1179 234 list /part_speed \$1;
#X obj 1627 261 s from_state;
#X obj 1395 267 s from_state;
#X obj 1162 268 s from_state;
#X obj 1196 300 s part_speed;
#X obj 1428 299 s fill_thres;
#X obj 1675 302 s max_age;
#X obj 1200 95 r mu_bang;
#X obj 1414 145 random 100;
#X obj 1414 174 / 100;
#X obj 1422 103 r mu_bang;
#X obj 1669 112 r mu_bang;
#X obj 1662 183 + 1;
#X obj 1663 154 random 699;
#X msg 994 -77 list /age_depth \$1;
#X msg 1201 -76 list /particle_size \$1;
#X msg 1447 -61 list /pulse_size \$1;
#X msg 1666 -73 list /pulse_depth \$1;
#X obj 996 -46 s from_state;
#X obj 1201 -46 s from_state;
#X obj 1448 -30 s from_state;
#X obj 1667 -40 s from_state;
#X obj 985 -14 s age_depth;
#X obj 1186 -15 s particle_size;
#X obj 1421 4 s pulse_size;
#X obj 1640 -10 s pulse_depth;
#X obj 1021 -175 r mu_bang;
#X obj 1020 -113 - 6;
#X obj 1020 -142 random 12;
#X obj 1198 -171 r mu_bang;
#X obj 1195 -142 random 25;
#X obj 1195 -113 - 10;
#X obj 1456 -187 r mu_bang;
#X obj 1457 -98 - 2;
#X obj 1665 -182 r mu_bang;
#X obj 1662 -153 random 99900;
#X obj 1662 -124 + 100;
#X obj 863 768 inlet;
#X obj 857 821 metro 30000;
#X obj 877 936 bng 35 250 50 0 empty empty empty 17 7 0 10 -262130
-1 -1;
#X floatatom 970 764 5 0 0 0 - - -;
#X obj 1042 814 r sys_overload;
#X obj 1038 866 change;
#X obj 1055 967 spigot;
#X obj 934 881 spigot;
#X obj 1197 165 + 0.05;
#X obj 1197 136 random 10;
#X obj 1454 -158 random 400;
#X obj 1453 -126 / 100;
#X obj 2081 484 + 0.1;
#X obj 2082 456 random 55;
#X msg 967 736 45000;
#X obj 1026 764 r linger_time;
#X connect 0 0 2 0;
#X connect 0 0 7 0;
#X connect 1 0 3 0;
#X connect 1 0 6 0;
#X connect 6 0 5 0;
#X connect 7 0 4 0;
#X connect 10 0 11 0;
#X connect 11 0 8 0;
#X connect 11 0 14 0;
#X connect 12 0 13 0;
#X connect 13 0 9 0;
#X connect 13 0 15 0;
#X connect 14 0 16 0;
#X connect 15 0 17 0;
#X connect 18 0 36 0;
#X connect 19 0 37 0;
#X connect 20 0 32 0;
#X connect 21 0 39 0;
#X connect 22 0 38 0;
#X connect 26 0 0 0;
#X connect 27 0 1 0;
#X connect 28 0 10 0;
#X connect 29 0 12 0;
#X connect 30 0 127 0;
#X connect 33 0 34 0;
#X connect 34 0 18 0;
#X connect 34 0 40 0;
#X connect 35 0 33 0;
#X connect 41 0 42 0;
#X connect 42 0 43 0;
#X connect 43 0 19 0;
#X connect 43 0 44 0;
#X connect 45 0 46 0;
#X connect 46 0 47 0;
#X connect 47 0 21 0;
#X connect 47 0 52 0;
#X connect 48 0 49 0;
#X connect 49 0 22 0;
#X connect 49 0 53 0;
#X connect 50 0 45 0;
#X connect 51 0 48 0;
#X connect 55 0 73 0;
#X connect 56 0 57 0;
#X connect 57 0 59 0;
#X connect 58 0 56 0;
#X connect 58 0 60 0;
#X connect 58 0 62 0;
#X connect 58 0 64 0;
#X connect 58 0 67 0;
#X connect 58 0 70 0;
#X connect 59 0 55 0;
#X connect 59 0 74 0;
#X connect 60 0 61 0;
#X connect 61 0 59 1;
#X connect 62 0 63 0;
#X connect 63 0 59 2;
#X connect 64 0 65 0;
#X connect 65 0 66 0;
#X connect 66 0 59 3;
#X connect 67 0 68 0;
#X connect 68 0 69 0;
#X connect 69 0 59 4;
#X connect 70 0 71 0;
#X connect 71 0 72 0;
#X connect 72 0 59 5;
#X connect 75 0 79 0;
#X connect 76 0 78 0;
#X connect 77 0 80 0;
#X connect 84 0 123 0;
#X connect 85 0 86 0;
#X connect 86 0 75 0;
#X connect 86 0 82 0;
#X connect 87 0 85 0;
#X connect 88 0 90 0;
#X connect 89 0 76 0;
#X connect 89 0 83 0;
#X connect 90 0 89 0;
#X connect 91 0 95 0;
#X connect 92 0 96 0;
#X connect 93 0 97 0;
#X connect 94 0 98 0;
#X connect 103 0 105 0;
#X connect 104 0 91 0;
#X connect 104 0 99 0;
#X connect 105 0 104 0;
#X connect 106 0 107 0;
#X connect 107 0 108 0;
#X connect 108 0 100 0;
#X connect 108 0 92 0;
#X connect 109 0 124 0;
#X connect 110 0 93 0;
#X connect 110 0 101 0;
#X connect 111 0 112 0;
#X connect 112 0 113 0;
#X connect 113 0 94 0;
#X connect 113 0 102 0;
#X connect 114 0 115 0;
#X connect 114 0 121 1;
#X connect 115 0 116 0;
#X connect 116 0 54 0;
#X connect 117 0 115 1;
#X connect 118 0 119 0;
#X connect 118 0 120 1;
#X connect 119 0 120 0;
#X connect 120 0 121 0;
#X connect 121 0 116 0;
#X connect 122 0 77 0;
#X connect 122 0 81 0;
#X connect 123 0 122 0;
#X connect 124 0 125 0;
#X connect 125 0 110 0;
#X connect 126 0 20 0;
#X connect 126 0 31 0;
#X connect 127 0 126 0;
#X connect 128 0 117 0;
#X connect 129 0 117 0;
#X restore 231 1681 pd mutator;
#X obj 137 1625 tgl 68 0 empty empty MUTATE 17 7 0 37 -191407 -232576
-232576 1 1;
#X text 562 1270 phawse bug;
#X text 552 1300 hmmmm "mutator";
#X obj -564 1669 nbx 5 14 -1e+037 1e+037 0 0 empty empty empty 0 -8
0 10 -262144 -1 -1 0 256;
#X connect 1 0 0 0;
#X connect 2 0 0 1;
#X connect 3 0 1 0;
#X connect 3 0 191 0;
#X connect 4 0 165 0;
#X connect 4 0 6 0;
#X connect 4 0 5 0;
#X connect 5 0 47 0;
#X connect 6 0 45 0;
#X connect 7 0 15 0;
#X connect 8 0 14 0;
#X connect 9 0 16 0;
#X connect 10 0 70 0;
#X connect 11 0 128 0;
#X connect 12 0 71 0;
#X connect 13 0 129 0;
#X connect 14 0 64 0;
#X connect 14 0 89 0;
#X connect 15 0 62 0;
#X connect 16 0 63 0;
#X connect 17 0 18 0;
#X connect 18 0 19 0;
#X connect 21 0 22 0;
#X connect 22 0 20 0;
#X connect 24 0 25 0;
#X connect 25 0 23 0;
#X connect 26 0 27 0;
#X connect 28 0 29 0;
#X connect 29 0 75 0;
#X connect 30 0 26 0;
#X connect 31 0 8 0;
#X connect 31 0 9 0;
#X connect 32 0 31 0;
#X connect 33 0 8 0;
#X connect 33 0 9 0;
#X connect 34 0 175 1;
#X connect 35 0 36 0;
#X connect 36 0 76 0;
#X connect 37 0 38 0;
#X connect 38 0 17 0;
#X connect 39 0 42 0;
#X connect 41 0 43 0;
#X connect 42 0 179 0;
#X connect 43 0 42 0;
#X connect 43 1 42 1;
#X connect 44 0 187 0;
#X connect 45 0 73 0;
#X connect 46 0 72 0;
#X connect 47 0 74 0;
#X connect 48 0 49 0;
#X connect 49 0 50 0;
#X connect 51 0 54 0;
#X connect 52 0 51 0;
#X connect 53 0 65 0;
#X connect 55 0 59 0;
#X connect 56 0 55 0;
#X connect 57 0 58 0;
#X connect 58 0 56 0;
#X connect 60 0 28 0;
#X connect 61 0 60 0;
#X connect 65 0 52 0;
#X connect 68 0 11 0;
#X connect 69 0 13 0;
#X connect 70 0 11 0;
#X connect 70 0 68 0;
#X connect 71 0 13 0;
#X connect 71 0 69 0;
#X connect 72 0 80 1;
#X connect 73 0 80 0;
#X connect 74 0 80 2;
#X connect 77 0 78 0;
#X connect 78 0 48 0;
#X connect 81 0 169 0;
#X connect 82 0 83 0;
#X connect 83 0 7 0;
#X connect 84 0 188 0;
#X connect 85 0 152 0;
#X connect 86 0 87 0;
#X connect 87 0 21 0;
#X connect 88 0 89 1;
#X connect 89 0 9 0;
#X connect 90 0 195 0;
#X connect 91 0 34 0;
#X connect 92 0 93 0;
#X connect 92 0 94 0;
#X connect 93 0 68 0;
#X connect 94 0 69 0;
#X connect 96 0 95 0;
#X connect 97 0 201 0;
#X connect 99 0 102 0;
#X connect 100 0 101 0;
#X connect 101 0 56 0;
#X connect 102 0 30 0;
#X connect 103 0 104 0;
#X connect 104 0 7 0;
#X connect 105 0 106 0;
#X connect 106 0 24 0;
#X connect 107 0 108 0;
#X connect 108 0 48 0;
#X connect 109 0 110 0;
#X connect 110 0 21 0;
#X connect 111 0 113 0;
#X connect 112 0 114 0;
#X connect 113 0 8 0;
#X connect 114 0 9 0;
#X connect 115 0 117 0;
#X connect 116 0 127 0;
#X connect 117 0 69 0;
#X connect 118 0 119 0;
#X connect 119 0 17 0;
#X connect 120 0 121 0;
#X connect 121 0 52 0;
#X connect 122 0 123 0;
#X connect 123 0 28 0;
#X connect 124 0 125 0;
#X connect 125 0 35 0;
#X connect 126 0 163 0;
#X connect 127 0 68 0;
#X connect 128 0 66 0;
#X connect 129 0 67 0;
#X connect 130 0 133 0;
#X connect 131 0 143 0;
#X connect 132 0 134 0;
#X connect 132 0 142 0;
#X connect 135 0 169 0;
#X connect 136 0 135 0;
#X connect 138 0 137 0;
#X connect 139 0 140 0;
#X connect 139 0 141 0;
#X connect 145 0 144 0;
#X connect 152 0 35 0;
#X connect 153 0 158 0;
#X connect 154 0 157 0;
#X connect 155 0 159 0;
#X connect 156 0 161 0;
#X connect 156 0 160 0;
#X connect 156 0 162 0;
#X connect 157 0 80 4;
#X connect 158 0 80 3;
#X connect 159 0 80 5;
#X connect 160 0 153 0;
#X connect 161 0 154 0;
#X connect 162 0 155 0;
#X connect 163 0 164 0;
#X connect 164 0 45 0;
#X connect 164 1 46 0;
#X connect 164 2 47 0;
#X connect 164 3 153 0;
#X connect 164 4 154 0;
#X connect 164 5 155 0;
#X connect 165 0 46 0;
#X connect 166 0 170 0;
#X connect 167 0 171 0;
#X connect 168 0 166 0;
#X connect 168 0 167 0;
#X connect 169 0 178 1;
#X connect 170 0 180 0;
#X connect 171 0 181 0;
#X connect 174 0 166 0;
#X connect 175 0 178 0;
#X connect 176 0 179 0;
#X connect 177 0 176 0;
#X connect 178 0 186 0;
#X connect 178 0 192 0;
#X connect 179 0 175 0;
#X connect 180 0 172 0;
#X connect 181 0 173 0;
#X connect 182 0 183 0;
#X connect 183 0 166 0;
#X connect 184 0 185 0;
#X connect 185 0 167 0;
#X connect 187 0 30 0;
#X connect 188 0 24 0;
#X connect 189 0 40 0;
#X connect 190 0 40 1;
#X connect 191 0 168 0;
#X connect 193 0 167 0;
#X connect 195 0 91 0;
#X connect 197 0 198 0;
#X connect 198 0 145 0;
#X connect 200 0 199 0;
#X connect 201 0 96 0;
#X connect 202 0 203 0;
#X connect 205 0 145 0;
#X connect 207 0 206 0;
#X coords 0 1402 1 1401 377 248 0;
#X restore -4 505 pd CONTROLS;
#X obj 991 619 r alpha_val;
#X msg 1244 1183 witdh \$1;
#X floatatom 1336 1181 5 0 0 0 - - -;
#X msg 896 132 2;
#X msg 711 270 kill 1;
#X text 178 696 create x/y for spawn domain;
#X text 206 965 comment;
#X obj 938 677 r color_RGB_rgbx;
#X obj 934 704 unpack f f f f f f;
#X obj 1223 643 s fade_val;
#X obj 1026 799 r fade_val;
#N canvas -1920 0 952 1154 sound_glitcher 0;
#X obj 377 584 pix_sig2pix~;
#X obj 377 612 pix_texture;
#X floatatom 306 584 5 0 0 0 - - -;
#X msg 314 626 env $;
#X obj 477 849 cube;
#X obj 530 723 tgl 15 0 empty empty empty 17 7 0 10 -262144 -1 -1 1
1;
#X floatatom 690 904 5 0 1 0 - - -;
#X obj 539 802 r age;
#X floatatom 654 675 5 0 1 0 - - -;
#X obj 458 723 spigot;
#X msg 346 809 draw fill;
#X obj 537 839 expr $f2<$f1 \; $f1<$f3;
#X obj 532 763 tgl 15 0 empty empty empty 17 7 0 10 -262144 -1 -1 0
1;
#X obj 460 763 spigot;
#X text 718 696 width;
#X text 652 702 start;
#X obj 692 874 +;
#X floatatom 716 671 5 -1 1 0 - - -;
#X obj 691 832 t b f;
#X msg 362 855 draw line;
#X msg 461 901 witdh \$1;
#X floatatom 558 900 5 0 0 0 - - -;
#X obj 514 456 alpha;
#X floatatom 570 421 5 0 0 0 - - -;
#X msg 399 410 auto 1;
#X obj 279 238 bonk~;
#X obj 258 186 adc~;
#X floatatom 292 286 5 0 0 0 - - -;
#X obj 354 236 unpack f f f;
#X floatatom 376 291 5 0 0 0 - - -;
#X obj 694 793 *;
#X obj 294 414 line;
#X floatatom 544 512 5 0 0 0 - - -;
#X msg 295 380 0 \$1;
#X obj 292 315 * 10;
#X msg 372 372 1;
#X obj 294 349 t f b;
#X obj 696 747 t b f;
#X obj 285 101 loadbang;
#X obj 240 462 inlet;
#X obj 664 490 inlet;
#X obj 700 591 loadbang;
#X msg 658 635 0;
#X msg 718 633 1;
#X obj 374 511 adc~;
#X obj 586 350 loadbang;
#X obj 484 552 * 0.1;
#X obj 21 713 unpack f f f f f f f f f f f;
#X floatatom 24 765 5 0 0 0 - - -;
#X floatatom 49 810 5 0 0 0 - - -;
#X floatatom 75 845 5 0 0 0 - - -;
#X floatatom 97 878 5 0 0 0 - - -;
#X floatatom 120 912 5 0 0 0 - - -;
#X floatatom 143 946 5 0 0 0 - - -;
#X floatatom 167 979 5 0 0 0 - - -;
#X floatatom 181 1009 5 0 0 0 - - -;
#X floatatom 203 1040 5 0 0 0 - - -;
#X floatatom 224 1074 5 0 0 0 - - -;
#X floatatom 251 1114 5 0 0 0 - - -;
#X msg 340 198 minvel 1;
#X msg 320 156 thresh 9 19;
#X msg 586 390 8;
#X connect 0 0 1 0;
#X connect 1 0 9 0;
#X connect 2 0 3 0;
#X connect 3 0 1 0;
#X connect 5 0 9 1;
#X connect 6 0 11 2;
#X connect 7 0 11 0;
#X connect 8 0 11 1;
#X connect 8 0 16 0;
#X connect 9 0 13 0;
#X connect 10 0 4 0;
#X connect 11 0 5 0;
#X connect 11 1 12 0;
#X connect 12 0 13 1;
#X connect 13 0 4 0;
#X connect 16 0 6 0;
#X connect 17 0 37 0;
#X connect 18 0 16 0;
#X connect 18 1 16 1;
#X connect 19 0 4 0;
#X connect 20 0 4 0;
#X connect 21 0 20 0;
#X connect 22 0 0 0;
#X connect 23 0 22 1;
#X connect 24 0 22 0;
#X connect 25 0 47 0;
#X connect 25 1 28 0;
#X connect 26 0 25 0;
#X connect 27 0 34 0;
#X connect 28 1 27 0;
#X connect 28 2 29 0;
#X connect 30 0 18 0;
#X connect 31 0 32 0;
#X connect 32 0 30 0;
#X connect 32 0 46 0;
#X connect 33 0 31 0;
#X connect 34 0 36 0;
#X connect 35 0 31 0;
#X connect 36 0 33 0;
#X connect 36 1 35 0;
#X connect 37 0 30 0;
#X connect 37 1 30 1;
#X connect 38 0 60 0;
#X connect 39 0 0 0;
#X connect 40 0 4 1;
#X connect 41 0 43 0;
#X connect 41 0 42 0;
#X connect 42 0 8 0;
#X connect 43 0 17 0;
#X connect 44 0 0 0;
#X connect 44 0 0 1;
#X connect 44 0 0 2;
#X connect 45 0 61 0;
#X connect 46 0 0 3;
#X connect 47 0 48 0;
#X connect 47 1 49 0;
#X connect 47 2 50 0;
#X connect 47 3 51 0;
#X connect 47 4 52 0;
#X connect 47 5 53 0;
#X connect 47 6 54 0;
#X connect 47 7 55 0;
#X connect 47 8 56 0;
#X connect 47 9 57 0;
#X connect 47 10 58 0;
#X connect 59 0 25 0;
#X connect 60 0 25 0;
#X connect 61 0 23 0;
#X restore 651 1008 pd sound_glitcher;
#X obj 705 805 spigot;
#X obj 755 772 r soundglitch;
#X obj 694 921 spigot;
#X obj 750 882 r sys_overload;
#X obj 962 1320 spigot;
#X obj 1052 1254 r sys_overload;
#X obj 1018 1288 change;
#N canvas -904 -137 900 1402 overload_detection 0;
#X obj 527 132 inlet;
#X obj 527 206 realtime;
#X obj 527 177 t b b;
#X floatatom 527 235 5 0 0 0 - - -;
#X obj 526 298 f;
#X obj 527 264 t b f;
#X obj 526 331 >;
#X floatatom 525 373 5 0 0 0 - - -;
#X obj 576 330 spigot;
#X msg 591 376 0;
#X text 204 233 use this to measure system load;
#X obj 380 387 /;
#X obj 381 324 t b f;
#X msg 380 355 1000;
#X floatatom 381 419 5 0 0 0 - - -;
#X text 279 420 framerate;
#X obj 268 680 s sys_overload;
#X obj 489 474 tgl 150 0 empty empty LAG_OUT!!! -17 -14 0 25 -258113
-86277 -86277 0 1;
#X obj 416 495 != 1;
#X obj 91 560 print overload \, FR:;
#X obj 230 526 spigot;
#X obj 266 654 tgl 15 0 empty empty empty 17 7 0 10 -262144 -1 -1 0
1;
#X obj 330 608 tgl 15 0 empty empty empty 17 7 0 10 -262144 -1 -1 0
1;
#X floatatom 513 733 5 0 0 0 - - -;
#X obj 424 727 del;
#X msg 447 668 stop;
#X obj 377 502 tgl 15 0 empty empty empty 17 7 0 10 -262144 -1 -1 1
1;
#X obj 386 538 change;
#X obj 258 603 spigot;
#X msg 406 612 0;
#X msg 395 766 1;
#X obj 573 640 loadbang;
#X obj 506 853 line;
#X floatatom 502 894 15 0 0 0 - - -;
#X msg 439 766 bang;
#X obj 587 730 f;
#X obj 387 578 t b b b b;
#X msg 577 672 1500;
#X obj 634 732 * 1.5;
#X obj 385 807 pack 1500 f;
#X obj 379 457 > 8;
#X connect 0 0 2 0;
#X connect 1 0 3 0;
#X connect 2 0 1 0;
#X connect 2 1 1 1;
#X connect 3 0 5 0;
#X connect 3 0 12 0;
#X connect 4 0 8 0;
#X connect 4 0 6 0;
#X connect 5 0 4 0;
#X connect 5 1 4 1;
#X connect 6 0 8 1;
#X connect 7 0 6 1;
#X connect 8 0 7 0;
#X connect 9 0 7 0;
#X connect 11 0 14 0;
#X connect 12 0 13 0;
#X connect 12 1 11 1;
#X connect 13 0 11 0;
#X connect 14 0 20 0;
#X connect 14 0 40 0;
#X connect 17 0 20 1;
#X connect 18 0 17 0;
#X connect 20 0 19 0;
#X connect 21 0 16 0;
#X connect 22 0 28 1;
#X connect 23 0 24 1;
#X connect 23 0 32 0;
#X connect 23 0 39 1;
#X connect 24 0 30 0;
#X connect 24 0 34 0;
#X connect 25 0 24 0;
#X connect 26 0 27 0;
#X connect 26 0 28 0;
#X connect 27 0 36 0;
#X connect 28 0 21 0;
#X connect 29 0 22 0;
#X connect 29 0 21 0;
#X connect 30 0 22 0;
#X connect 31 0 37 0;
#X connect 32 0 33 0;
#X connect 33 0 35 1;
#X connect 34 0 39 0;
#X connect 35 0 23 0;
#X connect 35 0 38 0;
#X connect 36 0 24 0;
#X connect 36 1 29 0;
#X connect 36 2 25 0;
#X connect 36 3 35 0;
#X connect 37 0 23 0;
#X connect 37 0 35 1;
#X connect 38 0 35 1;
#X connect 39 0 32 0;
#X connect 40 0 18 0;
#X connect 40 0 26 0;
#X restore 414 -177 pd overload_detection;
#X connect 0 0 1 0;
#X connect 0 0 115 0;
#X connect 1 0 2 0;
#X connect 2 0 80 0;
#X connect 3 0 2 2;
#X connect 4 0 3 0;
#X connect 4 1 3 0;
#X connect 5 0 4 0;
#X connect 6 0 8 0;
#X connect 7 0 6 1;
#X connect 7 0 52 1;
#X connect 8 0 21 0;
#X connect 9 0 8 2;
#X connect 10 0 56 0;
#X connect 11 0 12 0;
#X connect 12 0 26 0;
#X connect 13 0 99 0;
#X connect 14 0 29 0;
#X connect 14 0 79 0;
#X connect 15 0 16 0;
#X connect 16 0 75 1;
#X connect 17 0 75 0;
#X connect 18 0 41 0;
#X connect 19 0 76 1;
#X connect 20 0 5 0;
#X connect 21 0 22 0;
#X connect 21 2 24 0;
#X connect 21 6 52 0;
#X connect 22 0 23 0;
#X connect 23 0 11 0;
#X connect 23 0 108 0;
#X connect 24 0 23 1;
#X connect 24 1 23 2;
#X connect 24 2 23 3;
#X connect 25 0 100 0;
#X connect 26 0 63 0;
#X connect 27 0 112 0;
#X connect 28 0 26 2;
#X connect 28 0 26 3;
#X connect 28 0 26 1;
#X connect 29 0 9 0;
#X connect 30 0 63 0;
#X connect 31 0 32 0;
#X connect 32 0 27 0;
#X connect 32 1 30 0;
#X connect 33 0 34 1;
#X connect 34 0 31 0;
#X connect 35 0 36 0;
#X connect 35 1 37 0;
#X connect 38 0 46 0;
#X connect 39 0 40 0;
#X connect 40 0 1 0;
#X connect 41 0 2 3;
#X connect 44 0 28 0;
#X connect 45 0 34 0;
#X connect 49 0 39 0;
#X connect 51 0 33 0;
#X connect 52 0 43 0;
#X connect 53 0 7 0;
#X connect 54 0 18 0;
#X connect 55 0 87 0;
#X connect 57 0 78 1;
#X connect 58 0 2 1;
#X connect 59 0 12 1;
#X connect 59 1 12 2;
#X connect 59 2 12 3;
#X connect 61 0 73 1;
#X connect 62 0 67 0;
#X connect 64 0 68 0;
#X connect 65 0 70 0;
#X connect 66 0 105 0;
#X connect 67 0 65 0;
#X connect 67 1 65 1;
#X connect 68 0 69 0;
#X connect 68 1 69 1;
#X connect 69 0 70 1;
#X connect 70 0 66 0;
#X connect 71 0 73 0;
#X connect 72 0 74 0;
#X connect 73 0 62 0;
#X connect 73 1 64 0;
#X connect 74 0 61 0;
#X connect 75 0 76 0;
#X connect 76 0 10 0;
#X connect 77 0 78 2;
#X connect 78 0 63 1;
#X connect 78 0 107 1;
#X connect 79 0 8 1;
#X connect 80 0 6 0;
#X connect 81 0 35 0;
#X connect 82 0 35 3;
#X connect 83 0 35 1;
#X connect 84 0 35 2;
#X connect 85 0 35 4;
#X connect 87 0 78 0;
#X connect 88 0 87 1;
#X connect 89 0 86 0;
#X connect 91 0 17 0;
#X connect 92 0 19 0;
#X connect 96 0 11 1;
#X connect 97 0 63 0;
#X connect 98 0 97 0;
#X connect 99 0 58 0;
#X connect 100 0 80 0;
#X connect 103 0 104 0;
#X connect 104 0 59 0;
#X connect 104 1 59 1;
#X connect 104 2 59 2;
#X connect 104 3 59 3;
#X connect 104 4 59 4;
#X connect 104 5 59 5;
#X connect 106 0 12 4;
#X connect 108 0 110 0;
#X connect 109 0 108 1;
#X connect 110 0 107 0;
#X connect 111 0 110 1;
#X connect 112 0 63 0;
#X connect 113 0 114 0;
#X connect 114 0 112 1;
#X connect 114 0 30 0;
